<?xml version="1.0" standalone="no"?>
<!DOCTYPE svg PUBLIC "-//W3C//DTD SVG 1.1//EN" "http://www.w3.org/Graphics/SVG/1.1/DTD/svg11.dtd" >
<svg xmlns="http://www.w3.org/2000/svg" xmlns:xlink="http://www.w3.org/1999/xlink" version="1.1">
<metadata>
Created by FontForge 20170731 at Fri Sep 12 16:14:07 2008
 By Aleksey,,,
Copyright (C) 2001, 2008 Hoefler &#38; Frere-Jones. http://www.typography.com
</metadata>
<defs>
<font id="GothamXNarrow-Book" horiz-adv-x="300" >
  <font-face 
    font-family="Gotham XNarrow Book"
    font-weight="325"
    font-stretch="condensed"
    units-per-em="1000"
    panose-1="0 0 0 0 0 0 0 0 0 0"
    ascent="800"
    descent="-200"
    x-height="525"
    cap-height="700"
    bbox="-161 -213 894 947"
    underline-thickness="50"
    underline-position="-200"
    unicode-range="U+0020-FB04"
  />
<missing-glyph horiz-adv-x="500" 
d="M0 -200v1000h500v-1000h-500zM71 750l179 -390l179 390h-358zM50 -76l172 376l-172 376v-752zM450 676l-172 -376l172 -376v752zM250 240l-179 -390h358z" />
    <glyph glyph-name="f_f" unicode="ff" horiz-adv-x="530" 
d="M81 0v466h-55v59h55v51q0 71 36 109q32 32 89 32q26 0 50 -7v-61q-23 7 -41 7q-67 0 -67 -85v-46h105v-59h-105v-466h-67zM347 0v466h-55v59h55v51q0 72 35 109q32 32 89 32q26 0 50 -7v-61q-23 7 -41 7q-66 0 -66 -85v-46h104v-59h-104v-466h-67z" />
    <glyph glyph-name="fi" unicode="fi" horiz-adv-x="462" 
d="M81 0v466h-55v59h55v51q0 71 36 109q32 32 89 32q26 0 50 -7v-61q-23 7 -41 7q-67 0 -67 -85v-46h105v-59h-105v-466h-67zM330 0v525h68v-525h-68zM328 626v84h72v-84h-72z" />
    <glyph glyph-name="fl" unicode="fl" horiz-adv-x="462" 
d="M81 0v466h-55v59h55v51q0 71 36 109q32 32 89 32q26 0 50 -7v-61q-23 7 -41 7q-67 0 -67 -85v-46h105v-59h-105v-466h-67zM330 0v714h68v-714h-68z" />
    <glyph glyph-name="f_f_i" unicode="ffi" horiz-adv-x="727" 
d="M81 0v466h-55v59h55v51q0 71 36 109q32 32 89 32q26 0 50 -7v-61q-23 7 -41 7q-67 0 -67 -85v-46h105v-59h-105v-466h-67zM347 0v466h-55v59h55v51q0 72 35 109q32 32 89 32q26 0 50 -7v-61q-23 7 -41 7q-66 0 -66 -85v-46h104v-59h-104v-466h-67zM595 0v525h68v-525h-68
zM592 626v84h73v-84h-73z" />
    <glyph glyph-name="f_f_l" unicode="ffl" horiz-adv-x="727" 
d="M81 0v466h-55v59h55v51q0 71 36 109q32 32 89 32q26 0 50 -7v-61q-23 7 -41 7q-67 0 -67 -85v-46h105v-59h-105v-466h-67zM347 0v466h-55v59h55v51q0 72 35 109q32 32 89 32q26 0 50 -7v-61q-23 7 -41 7q-66 0 -66 -85v-46h104v-59h-104v-466h-67zM595 0v714h68v-714h-68
z" />
    <glyph glyph-name=".notdef" horiz-adv-x="500" 
d="M0 -200v1000h500v-1000h-500zM71 750l179 -390l179 390h-358zM50 -76l172 376l-172 376v-752zM450 676l-172 -376l172 -376v752zM250 240l-179 -390h358z" />
    <glyph glyph-name=".null" horiz-adv-x="0" 
 />
    <glyph glyph-name="nonmarkingreturn" horiz-adv-x="333" 
 />
    <glyph glyph-name="space" unicode=" " horiz-adv-x="196" 
 />
    <glyph glyph-name="exclam" unicode="!" horiz-adv-x="226" 
d="M94 194l-22 450v56h82v-56l-23 -450h-37zM70 0v100h86v-100h-86z" />
    <glyph glyph-name="quotedbl" unicode="&#x22;" horiz-adv-x="325" 
d="M199 434l11 266h77v-8l-56 -258h-32zM51 434l12 266h77v-8l-57 -258h-32z" />
    <glyph glyph-name="numbersign" unicode="#" horiz-adv-x="497" 
d="M442 241v-63h-92l-20 -178h-55l20 178h-131l-20 -178h-56l20 178h-80v63h87l25 221h-86v62h93l20 176h55l-20 -176h131l20 176h55l-20 -176h80v-62h-87l-24 -221h85zM194 462l-24 -222h132l25 222h-133z" />
    <glyph glyph-name="dollar" unicode="$" horiz-adv-x="447" 
d="M398 634l-41 -51q-52 49 -107 56v-252q85 -41 120.5 -88.5t35.5 -115.5v-2q0 -72 -42.5 -122t-112.5 -60v-99h-53v97q-105 5 -174 83l43 52q58 -66 132 -73v271q-81 40 -117 83.5t-36 111.5v1q0 69 41.5 116.5t110.5 57.5v65h53v-63q85 -6 147 -68zM338 182q0 42 -20 72
t-68 55v-248q42 9 65 41.5t23 78.5v1zM115 529q0 -41 19 -68t65 -52v229q-40 -9 -62 -38t-22 -70v-1z" />
    <glyph glyph-name="percent" unicode="%" horiz-adv-x="630" 
d="M159 358q-54 0 -88.5 47t-34.5 122v9q0 76 35 123t89 47t89 -47t35 -122v-9q0 -76 -35 -123t-90 -47zM159 654q-30 0 -49 -32t-19 -86v-7q0 -54 19.5 -86.5t49.5 -32.5q31 0 50 32t19 86v7q0 54 -19.5 86.5t-50.5 32.5zM295 361l186 339h55l-201 -362l-185 -338h-55z
M470 -6q-54 0 -88.5 47t-34.5 122v9q0 76 35 123t89 47t89 -47t35 -122v-9q0 -76 -35 -123t-90 -47zM471 46q30 0 49 32t19 86v7q0 54 -19.5 86.5t-49.5 32.5t-49 -32t-19 -86v-7q0 -54 19.5 -86.5t49.5 -32.5z" />
    <glyph glyph-name="ampersand" unicode="&#x26;" horiz-adv-x="516" 
d="M445 -10l-71 99q-73 -98 -170 -98q-75 0 -124 52.5t-49 130.5v4q0 126 131 214q-36 55 -51.5 92t-15.5 75v4q0 60 41 103.5t105 43.5q62 0 100 -41.5t38 -100.5v-5q0 -57 -32.5 -101t-95.5 -86l121 -177q25 56 48 146l57 -17q-27 -109 -65 -185l86 -118zM218 421
q97 59 97 141v2q0 37 -21 62.5t-54 25.5q-35 0 -58 -26t-23 -63v-2q0 -56 59 -140zM209 53q70 0 129 84l-143 208q-94 -63 -94 -163v-4q0 -54 30 -89.5t78 -35.5z" />
    <glyph glyph-name="quotesingle" unicode="'" horiz-adv-x="173" 
d="M51 434l12 266h77v-8l-57 -258h-32z" />
    <glyph glyph-name="parenleft" unicode="(" horiz-adv-x="317" 
d="M266 -135q-104 60 -161 168.5t-57 255.5t57 255.5t161 168.5l25 -43q-175 -123 -175 -381t175 -381z" />
    <glyph glyph-name="parenright" unicode=")" horiz-adv-x="317" 
d="M50 -135l-24 43q175 123 175 381t-175 381l24 43q104 -60 161.5 -168.5t57.5 -255.5t-57.5 -255.5t-161.5 -168.5z" />
    <glyph glyph-name="asterisk" unicode="*" horiz-adv-x="335" 
d="M143 413l11 119l-89 -67l-26 43l102 49l-102 50l26 43l89 -67l-11 119h50l-11 -119l88 67l26 -43l-101 -50l101 -49l-26 -43l-88 67l11 -119h-50z" />
    <glyph glyph-name="plus" unicode="+" horiz-adv-x="448" 
d="M192 167v153h-150v64h150v153h65v-153h149v-64h-149v-153h-65z" />
    <glyph glyph-name="comma" unicode="," horiz-adv-x="196" 
d="M41 -120l-12 33q68 24 62 87h-36v100h86v-85q0 -57 -23.5 -88t-76.5 -47z" />
    <glyph glyph-name="hyphen" unicode="-" horiz-adv-x="329" 
d="M49 266v68h232v-68h-232z" />
    <glyph glyph-name="period" unicode="." horiz-adv-x="196" 
d="M55 0v100h86v-100h-86z" />
    <glyph glyph-name="slash" unicode="/" horiz-adv-x="356" 
d="M-11 -109l306 888h60l-306 -888h-60z" />
    <glyph glyph-name="zero" unicode="0" horiz-adv-x="501" 
d="M250 -10q-97 0 -151.5 92t-54.5 259v16q0 168 55.5 260.5t151.5 92.5t150.5 -92t54.5 -259v-16q0 -168 -54.5 -260.5t-151.5 -92.5zM251 55q61 0 97.5 75t36.5 212v14q0 137 -37 213t-98 76t-97.5 -75t-36.5 -212v-14q0 -137 37 -213t98 -76z" />
    <glyph glyph-name="one" unicode="1" horiz-adv-x="269" 
d="M124 0v625l-94 -39l-7 68l117 49h53v-703h-69z" />
    <glyph glyph-name="two" unicode="2" horiz-adv-x="430" 
d="M34 0v53l195 285q46 66 65 107t19 84q0 52 -30.5 82.5t-79.5 30.5q-67 0 -123 -76l-45 45q67 99 175 99q77 0 126 -48t49 -127v-2q0 -55 -22 -103t-77 -128l-162 -235h264v-67h-354z" />
    <glyph glyph-name="three" unicode="3" horiz-adv-x="421" 
d="M182 -10q-94 0 -160 63l38 55q55 -53 121 -53q55 0 92 40t37 106v4q0 68 -47.5 102.5t-126.5 34.5h-6l-6 45l164 246h-245v67h331v-54l-169 -250q77 -12 126 -59t49 -130v-4q0 -95 -57 -154t-141 -59z" />
    <glyph glyph-name="four" unicode="4" horiz-adv-x="470" 
d="M300 0v157h-266l-7 53l275 494h63v-486h75v-61h-75v-157h-65zM99 218h201v361z" />
    <glyph glyph-name="five" unicode="5" horiz-adv-x="433" 
d="M189 -10q-87 0 -155 61l37 55q55 -50 119 -50q57 0 94.5 44.5t37.5 115.5v2q0 72 -36 109.5t-92 37.5q-43 0 -93 -24l-43 30l17 329h290v-67h-231l-12 -221q45 18 85 18q80 0 133 -54t53 -154v-3q0 -101 -58 -165t-146 -64z" />
    <glyph glyph-name="six" unicode="6" horiz-adv-x="466" 
d="M239 -10q-71 0 -118 47q-76 78 -76 275v15q0 187 60 285t163 98q64 0 127 -44l-32 -59q-47 37 -97 37q-68 0 -108 -75.5t-44 -209.5q22 37 58 58t79 21q74 0 124.5 -56t50.5 -157v-2q0 -102 -54 -167.5t-133 -65.5zM240 54q52 0 84 47t32 119v2q0 72 -32.5 113.5
t-83.5 41.5t-84.5 -41t-33.5 -111v-3q0 -74 31 -121t87 -47z" />
    <glyph glyph-name="seven" unicode="7" horiz-adv-x="418" 
d="M88 0l217 632h-263v68h336v-54l-216 -646h-74z" />
    <glyph glyph-name="eight" unicode="8" horiz-adv-x="449" 
d="M224 -10q-83 0 -136.5 53.5t-53.5 139.5v5q0 62 29.5 107t79.5 67q-92 49 -92 162v5q0 81 50 131t123 50t123.5 -50t50.5 -131v-5q0 -114 -93 -162q50 -22 79.5 -67t29.5 -107v-5q0 -86 -53.5 -139.5t-136.5 -53.5zM224 51q55 0 88 38.5t33 97.5v2q0 62 -35 102t-86 40
t-85.5 -40t-34.5 -102v-2q0 -59 33 -97.5t87 -38.5zM224 390q45 0 75.5 38.5t30.5 94.5v2q0 55 -30 89.5t-76 34.5t-76 -34.5t-30 -89.5v-2q0 -56 30.5 -94.5t75.5 -38.5z" />
    <glyph glyph-name="nine" unicode="9" horiz-adv-x="465" 
d="M199 56q68 0 108.5 75t43.5 204q-21 -38 -57 -59.5t-79 -21.5q-74 0 -124.5 56.5t-50.5 160.5v2q0 104 54 170.5t133 66.5q71 0 118 -47q75 -77 75 -275v-15q0 -187 -59.5 -285t-162.5 -98q-69 0 -137 50l31 58q58 -42 107 -42zM225 315q51 0 85 42t34 114v3
q0 77 -31.5 124.5t-87.5 47.5q-52 0 -84 -48t-32 -122v-2q0 -74 32.5 -116.5t83.5 -42.5z" />
    <glyph glyph-name="colon" unicode=":" horiz-adv-x="206" 
d="M60 424v100h86v-100h-86zM60 0v100h86v-100h-86z" />
    <glyph glyph-name="semicolon" unicode=";" horiz-adv-x="206" 
d="M60 424v100h86v-100h-86zM46 -120l-12 33q68 24 62 87h-36v100h86v-85q0 -57 -23.5 -88t-76.5 -47z" />
    <glyph glyph-name="less" unicode="&#x3c;" horiz-adv-x="448" 
d="M386 134l-339 187v62l339 187v-76l-267 -142l267 -142v-76z" />
    <glyph glyph-name="equal" unicode="=" horiz-adv-x="448" 
d="M49 409v68h351v-68h-351zM49 227v68h351v-68h-351z" />
    <glyph glyph-name="greater" unicode="&#x3e;" horiz-adv-x="448" 
d="M63 134v76l266 142l-266 142v76l339 -187v-62z" />
    <glyph glyph-name="question" unicode="?" horiz-adv-x="389" 
d="M146 194l-11 170l5 6q147 29 147 150v2q0 54 -32.5 87t-83.5 33q-59 0 -118 -55l-38 51q75 68 160 68q81 0 131.5 -51t50.5 -129v-3q0 -147 -157 -198l-9 -131h-45zM128 0v100h85v-100h-85z" />
    <glyph glyph-name="at" unicode="@" horiz-adv-x="757" 
d="M370 -144q-144 0 -237.5 103.5t-92.5 275.5q0 126 45 234t129.5 174.5t190.5 66.5q137 0 224.5 -99.5t87.5 -243.5q0 -125 -48 -210.5t-119 -85.5q-45 0 -71.5 26t-29.5 69q-59 -96 -133 -96q-51 0 -84.5 40.5t-33.5 109.5q0 114 54.5 200t128.5 86q78 0 104 -87l14 72
l59 -10l-45 -246q-7 -32 -7 -64q0 -29 14 -46t40 -17q50 0 86.5 78t36.5 181q0 128 -77 219.5t-202 91.5q-98 0 -175 -64.5t-116.5 -164.5t-39.5 -213q-1 -160 82 -254.5t216 -94.5q97 0 185 53l16 -26q-95 -58 -202 -58zM333 125q36 0 66 32q28 28 48 81t20 105
q0 48 -21.5 76.5t-55.5 28.5q-35 0 -65 -30q-29 -30 -46.5 -85t-17.5 -106t19.5 -76.5t52.5 -25.5z" />
    <glyph glyph-name="A" unicode="A" horiz-adv-x="543" 
d="M28 0l207 704h73l208 -704h-73l-53 183h-240l-53 -183h-69zM168 246h204l-101 354z" />
    <glyph glyph-name="B" unicode="B" horiz-adv-x="500" 
d="M68 0v700h166q106 0 163 -57q46 -48 46 -118v-3q0 -121 -117 -164q137 -40 137 -167v-4q0 -88 -63 -137.5t-169 -49.5h-163zM373 514v2q0 55 -37 87.5t-101 32.5h-97v-252h88q69 0 108 34.5t39 95.5zM393 193q0 62 -42 95.5t-118 33.5h-95v-258h97q73 0 115.5 33.5
t42.5 93.5v2z" />
    <glyph glyph-name="C" unicode="C" horiz-adv-x="476" 
d="M292 -7q-109 0 -177.5 92.5t-68.5 258.5v11q0 164 71.5 258t181.5 94q83 0 146 -58l-39 -55q-52 47 -109 47q-77 0 -128.5 -78.5t-51.5 -208.5v-7q0 -133 51 -210.5t128 -77.5q59 0 114 52l38 -54q-69 -64 -156 -64z" />
    <glyph glyph-name="D" unicode="D" horiz-adv-x="539" 
d="M68 0v700h145q127 0 203.5 -91.5t76.5 -251.5v-14q0 -159 -76.5 -251t-203.5 -92h-145zM210 636h-72v-572h72q96 0 154 74t58 206v12q0 131 -58 205.5t-154 74.5z" />
    <glyph glyph-name="E" unicode="E" horiz-adv-x="449" 
d="M68 0v700h338v-65h-268v-249h241v-65h-241v-256h272v-65h-342z" />
    <glyph glyph-name="F" unicode="F" horiz-adv-x="431" 
d="M68 0v700h331v-65h-261v-259h234v-65h-234v-311h-70z" />
    <glyph glyph-name="G" unicode="G" horiz-adv-x="534" 
d="M310 -7q-120 0 -192 93t-72 257v13q0 160 74 255.5t191 95.5q91 0 159 -55l-40 -59q-50 48 -118 48q-84 0 -139.5 -77.5t-55.5 -208.5v-9q0 -137 54.5 -213t143.5 -76q53 0 94 27v223h-134v64h201v-324q-76 -54 -166 -54z" />
    <glyph glyph-name="H" unicode="H" horiz-adv-x="539" 
d="M68 0v700h70v-315h263v315h71v-700h-71v320h-263v-320h-70z" />
    <glyph glyph-name="I" unicode="I" horiz-adv-x="218" 
d="M74 0v700h70v-700h-70z" />
    <glyph glyph-name="J" unicode="J" horiz-adv-x="358" 
d="M142 -7q-84 0 -129 69l46 47q36 -50 84 -50q39 0 61.5 28t22.5 83v530h70v-533q0 -89 -45 -132q-41 -42 -110 -42z" />
    <glyph glyph-name="K" unicode="K" horiz-adv-x="500" 
d="M68 0v700h70v-389l253 389h82l-205 -307l220 -393h-82l-185 327l-83 -122v-205h-70z" />
    <glyph glyph-name="L" unicode="L" horiz-adv-x="406" 
d="M68 0v700h70v-635h245v-65h-315z" />
    <glyph glyph-name="M" unicode="M" horiz-adv-x="618" 
d="M68 0v700h74l167 -367l167 367h75v-700h-69v561l-172 -373h-3l-171 372v-560h-68z" />
    <glyph glyph-name="N" unicode="N" horiz-adv-x="553" 
d="M68 0v700h68l281 -539v539h68v-700h-61l-288 553v-553h-68z" />
    <glyph glyph-name="O" unicode="O" horiz-adv-x="566" 
d="M283 -10q-106 0 -171.5 95.5t-65.5 256.5v15q0 162 65.5 257.5t171.5 95.5t172 -95t66 -257v-15q0 -162 -66 -257.5t-172 -95.5zM283 56q72 0 119 77.5t47 210.5v12q0 133 -47 210.5t-119 77.5t-118.5 -77.5t-46.5 -210.5v-12q0 -133 46.5 -210.5t118.5 -77.5z" />
    <glyph glyph-name="P" unicode="P" horiz-adv-x="475" 
d="M68 0v700h153q104 0 165.5 -59.5t61.5 -163.5v-2q0 -106 -63.5 -166t-167.5 -62h-79v-247h-70zM138 311h79q75 0 117.5 43.5t42.5 119.5v1q0 77 -42 118.5t-117 41.5h-80v-324z" />
    <glyph glyph-name="Q" unicode="Q" horiz-adv-x="567" 
d="M533 25l-45 -44l-65 68q-61 -59 -139 -59q-106 0 -172 95t-66 257v15q0 162 65.5 257.5t171.5 95.5t172 -95t66 -257v-15q0 -151 -61 -247zM285 56q55 0 92 39l-89 89l44 45l80 -84q37 77 37 198v14q0 132 -47 209.5t-119 77.5t-118.5 -77t-46.5 -210v-14
q0 -134 46.5 -210.5t120.5 -76.5z" />
    <glyph glyph-name="R" unicode="R" horiz-adv-x="506" 
d="M68 0v700h169q107 0 167 -60q55 -55 55 -150v-3q0 -77 -37 -127t-101 -71l156 -289h-80l-146 273q-9 -1 -27 -1h-86v-272h-70zM138 336h78q89 0 131.5 40t42.5 110v1q0 72 -42 110t-116 38h-94v-299z" />
    <glyph glyph-name="S" unicode="S" horiz-adv-x="442" 
d="M214 -9q-109 0 -196 84l44 56q77 -75 151 -75q54 0 87.5 33.5t33.5 82.5v2q0 40 -25.5 72.5t-98.5 75.5q-94 54 -129 100t-35 108v2q0 76 53 126.5t135 50.5q97 0 170 -70l-43 -55q-63 60 -130 60q-51 0 -82.5 -30.5t-31.5 -75.5v-1q0 -42 27 -74t106 -79
q91 -54 123 -100t32 -108v-2q0 -78 -54.5 -130.5t-136.5 -52.5z" />
    <glyph glyph-name="T" unicode="T" horiz-adv-x="426" 
d="M178 0v635h-152v65h375v-65h-153v-635h-70z" />
    <glyph glyph-name="U" unicode="U" horiz-adv-x="535" 
d="M267 -10q-93 0 -148.5 62t-55.5 173v475h69v-476q0 -81 36 -125t100 -44q63 0 99 43t36 124v478h70v-474q0 -112 -55.5 -174t-150.5 -62z" />
    <glyph glyph-name="V" unicode="V" horiz-adv-x="517" 
d="M224 -4l-196 704h73l158 -587l159 587h72l-198 -704h-68z" />
    <glyph glyph-name="W" unicode="W" horiz-adv-x="784" 
d="M195 -4l-164 704h73l126 -569l132 570h62l132 -570l126 569h72l-165 -704h-65l-132 561l-132 -561h-65z" />
    <glyph glyph-name="X" unicode="X" horiz-adv-x="494" 
d="M378 700h77l-167 -337l179 -363h-78l-144 303l-142 -303h-76l178 361l-167 339h78l130 -279z" />
    <glyph glyph-name="Y" unicode="Y" horiz-adv-x="486" 
d="M208 0v288l-195 412h77l154 -333l154 333h75l-195 -411v-289h-70z" />
    <glyph glyph-name="Z" unicode="Z" horiz-adv-x="464" 
d="M42 0v49l296 587h-285v64h371v-49l-297 -587h297v-64h-382z" />
    <glyph glyph-name="bracketleft" unicode="[" horiz-adv-x="325" 
d="M81 -130v830h201v-52h-138v-726h138v-52h-201z" />
    <glyph glyph-name="backslash" unicode="\" horiz-adv-x="356" 
d="M307 -109l-306 888h61l305 -888h-60z" />
    <glyph glyph-name="bracketright" unicode="]" horiz-adv-x="325" 
d="M43 -130v52h138v726h-138v52h201v-830h-201z" />
    <glyph glyph-name="asciicircum" unicode="^" horiz-adv-x="405" 
d="M74 514l101 179h55l101 -179h-57l-72 125l-73 -125h-55z" />
    <glyph glyph-name="underscore" unicode="_" horiz-adv-x="505" 
d="M-2 -158v55h509v-55h-509z" />
    <glyph glyph-name="grave" unicode="`" horiz-adv-x="500" 
d="M268 582l-96 102l66 33l78 -135h-48z" />
    <glyph glyph-name="a" unicode="a" horiz-adv-x="417" 
d="M170 -10q-58 0 -98.5 45t-40.5 117v7q0 78 43 123t117 45q51 0 107 -20v45q0 57 -29 87t-81 30q-58 0 -107 -33l-22 57q69 38 137 38q78 0 123 -45q45 -43 45 -130v-356h-67v73q-41 -83 -127 -83zM187 47q47 -1 79 35t32 87v84q-47 20 -96 20t-76.5 -30.5t-27.5 -81.5v-5
q0 -49 24.5 -79t64.5 -30z" />
    <glyph glyph-name="b" unicode="b" horiz-adv-x="466" 
d="M264 -9q-88 0 -137 103v-94h-67v714h67v-285q49 105 137 105q69 0 116 -67.5t47 -194.5v-19q0 -125 -47.5 -193.5t-115.5 -68.5zM248 52q48 0 79.5 53.5t31.5 149.5v14q0 96 -31.5 150t-79.5 54q-52 0 -88 -55.5t-36 -146.5v-18q0 -91 36 -146t88 -55z" />
    <glyph glyph-name="c" unicode="c" horiz-adv-x="371" 
d="M228 -10q-85 0 -138 69.5t-53 194.5v13q0 125 55.5 196t139.5 71q62 0 115 -46l-34 -55q-38 38 -82 38q-52 0 -89 -56t-37 -151v-8q0 -97 37.5 -150.5t89.5 -52.5q42 1 81 40l35 -49q-50 -54 -120 -54z" />
    <glyph glyph-name="d" unicode="d" horiz-adv-x="466" 
d="M203 -9q-69 0 -116.5 68t-47.5 194v19q0 125 47.5 193.5t116.5 68.5q87 0 136 -103v283h68v-714h-68v96q-49 -105 -136 -105zM218 52q52 0 88 55.5t36 146.5v18q0 91 -36 146t-88 55q-48 0 -79.5 -53.5t-31.5 -149.5v-14q0 -96 31.5 -150t79.5 -54z" />
    <glyph glyph-name="e" unicode="e" horiz-adv-x="423" 
d="M237 -10q-87 0 -143.5 70.5t-56.5 193.5v10q0 124 51 197t128 73q79 0 125.5 -71.5t46.5 -193.5v-35h-284q4 -86 43 -134.5t96 -48.5q52 0 103 46l32 -51q-64 -56 -141 -56zM103 288h219q-2 82 -30 134t-76 52q-46 0 -77.5 -49.5t-35.5 -136.5z" />
    <glyph glyph-name="f" unicode="f" horiz-adv-x="264" 
d="M81 0v466h-55v59h55v51q0 71 36 109q32 32 89 32q26 0 50 -7v-61q-23 7 -41 7q-67 0 -67 -85v-46h105v-59h-105v-466h-67z" />
    <glyph glyph-name="g" unicode="g" horiz-adv-x="466" 
d="M214 -142q-79 0 -157 39l21 57q63 -36 133 -36q128 0 128 126v92q-50 -104 -137 -104q-69 0 -116 65t-47 183v6q0 118 47.5 183t116.5 65q86 0 136 -101v92h68v-480q0 -88 -48 -136q-49 -51 -145 -51zM219 93q49 0 85.5 51.5t36.5 136.5v5q0 85 -36.5 136t-85.5 51
q-48 0 -80 -50t-32 -138v-3q0 -88 32 -138.5t80 -50.5z" />
    <glyph glyph-name="h" unicode="h" horiz-adv-x="448" 
d="M60 0v714h67v-268q43 88 128 88q64 0 101.5 -44.5t37.5 -125.5v-364h-67v343q0 131 -95 131q-46 0 -75.5 -36.5t-29.5 -95.5v-342h-67z" />
    <glyph glyph-name="i" unicode="i" horiz-adv-x="197" 
d="M62 626v84h73v-84h-73zM65 0v525h67v-525h-67z" />
    <glyph glyph-name="j" unicode="j" horiz-adv-x="201" 
d="M66 626v84h73v-84h-73zM22 -143q-15 0 -37 6v57q14 -4 24 -4q60 0 60 78v531h67v-542q0 -58 -28 -92t-86 -34z" />
    <glyph glyph-name="k" unicode="k" horiz-adv-x="407" 
d="M60 0v714h67v-464l177 275h76l-144 -216l151 -309h-77l-120 249l-63 -94v-155h-67z" />
    <glyph glyph-name="l" unicode="l" horiz-adv-x="197" 
d="M65 0v714h67v-714h-67z" />
    <glyph glyph-name="m" unicode="m" horiz-adv-x="697" 
d="M60 0v525h67v-79q41 88 123 88q86 0 119 -86q51 86 134 86q63 0 100.5 -44t37.5 -126v-364h-67v343q0 131 -90 131q-43 0 -71.5 -36t-28.5 -97v-341h-67v343q0 131 -90 131q-43 0 -71.5 -37t-28.5 -96v-341h-67z" />
    <glyph glyph-name="n" unicode="n" horiz-adv-x="448" 
d="M60 0v525h67v-79q43 88 128 88q64 0 101.5 -44.5t37.5 -125.5v-364h-67v343q0 131 -95 131q-46 0 -75.5 -36.5t-29.5 -95.5v-342h-67z" />
    <glyph glyph-name="o" unicode="o" horiz-adv-x="452" 
d="M226 -10q-83 0 -136 74t-53 193v11q0 118 54 192t136 74t135 -74t53 -192v-11q0 -118 -53.5 -192.5t-135.5 -74.5zM227 51q52 0 86 58t34 149v8q0 91 -34.5 149t-86.5 58t-86.5 -57.5t-34.5 -149.5v-8q0 -91 35 -149t87 -58z" />
    <glyph glyph-name="p" unicode="p" horiz-adv-x="466" 
d="M60 -140v665h67v-96q49 105 137 105q69 0 116 -67.5t47 -194.5v-19q0 -125 -47.5 -193.5t-115.5 -68.5q-88 0 -137 103v-234h-67zM248 52q48 0 79.5 53.5t31.5 149.5v14q0 96 -31.5 150t-79.5 54q-52 0 -88 -55.5t-36 -146.5v-18q0 -91 36 -146t88 -55z" />
    <glyph glyph-name="q" unicode="q" horiz-adv-x="466" 
d="M339 -140v236q-49 -105 -136 -105q-69 0 -116.5 68t-47.5 194v19q0 125 47.5 193.5t116.5 68.5q87 0 136 -103v94h68v-665h-68zM218 52q52 0 88 55.5t36 146.5v18q0 91 -36 146t-88 55q-48 0 -79.5 -53.5t-31.5 -149.5v-14q0 -96 31.5 -150t79.5 -54z" />
    <glyph glyph-name="r" unicode="r" horiz-adv-x="289" 
d="M60 0v525h67v-93q19 47 55.5 74.5t87.5 24.5v-74h-3q-62 0 -101 -41.5t-39 -119.5v-296h-67z" />
    <glyph glyph-name="s" unicode="s" horiz-adv-x="348" 
d="M167 -8q-84 0 -159 69l38 52q60 -61 122 -61q38 0 62 22.5t24 57.5v2q0 29 -21 53t-76 55q-66 37 -94.5 71t-28.5 83v2q0 60 41.5 97t105.5 37q76 0 139 -54l-36 -52q-49 46 -105 46q-36 0 -58 -19.5t-22 -49.5v-2q0 -28 21 -50.5t75 -53.5q69 -40 96.5 -75.5t27.5 -84.5
v-1q0 -65 -43.5 -104.5t-108.5 -39.5z" />
    <glyph glyph-name="t" unicode="t" horiz-adv-x="284" 
d="M190 -6q-112 0 -112 110v362h-53v59h53v148h68v-148h104v-59h-104v-349q0 -62 60 -62q22 0 45 10v-58q-28 -13 -61 -13z" />
    <glyph glyph-name="u" unicode="u" horiz-adv-x="448" 
d="M193 -9q-64 0 -101.5 44.5t-37.5 125.5v364h68v-343q0 -131 94 -131q46 0 75.5 36.5t29.5 96.5v341h67v-525h-67v79q-43 -88 -128 -88z" />
    <glyph glyph-name="v" unicode="v" horiz-adv-x="424" 
d="M181 -3l-155 528h70l116 -427l118 427h68l-155 -528h-62z" />
    <glyph glyph-name="w" unicode="w" horiz-adv-x="632" 
d="M159 -3l-128 528h70l91 -414l96 414h58l95 -414l93 414h67l-127 -528h-63l-95 404l-95 -404h-62z" />
    <glyph glyph-name="x" unicode="x" horiz-adv-x="413" 
d="M106 525l100 -203l101 203h70l-132 -254l140 -271h-72l-108 218l-107 -218h-70l138 270l-131 255h71z" />
    <glyph glyph-name="y" unicode="y" horiz-adv-x="424" 
d="M217 99l111 426h69l-147 -525q-23 -79 -53.5 -111t-78.5 -32q-41 0 -75 22l18 57q26 -17 52 -17q25 0 41 17t31 61l-159 528h70z" />
    <glyph glyph-name="z" unicode="z" horiz-adv-x="372" 
d="M32 0v44l229 423h-219v58h297v-44l-227 -423h225v-58h-305z" />
    <glyph glyph-name="braceleft" unicode="{" horiz-adv-x="351" 
d="M310 -139q-176 20 -176 155q0 25 12 73t12 73q0 45 -26 73t-82 28h-17v51h17q56 0 82 28t26 73q0 25 -12 73t-12 73q0 135 176 155l8 -48q-66 -9 -92.5 -35.5t-26.5 -76.5q0 -26 12 -71t12 -70q0 -49 -26 -82.5t-76 -44.5q50 -10 76 -43.5t26 -82.5q0 -26 -12 -71
t-12 -70q0 -50 26.5 -76.5t92.5 -35.5z" />
    <glyph glyph-name="bar" unicode="|" horiz-adv-x="253" 
d="M99 -109v888h56v-888h-56z" />
    <glyph glyph-name="braceright" unicode="}" horiz-adv-x="351" 
d="M41 -139l-9 48q66 9 93 35.5t27 76.5q0 25 -12 70t-12 71q0 49 26 82.5t76 43.5q-50 11 -76 44.5t-26 82.5q0 25 12 70t12 71q0 50 -27 76.5t-93 35.5l9 48q175 -20 175 -155q0 -25 -11.5 -73t-11.5 -73q0 -45 26 -73t82 -28h17v-51h-17q-56 0 -82 -28t-26 -73
q0 -25 11.5 -73t11.5 -73q0 -135 -175 -155z" />
    <glyph glyph-name="asciitilde" unicode="~" horiz-adv-x="371" 
d="M241 249q-26 0 -60 24q-31 22 -46 22q-14 0 -22 -11t-16 -37l-41 12q20 91 74 91q27 0 60 -23q30 -22 46 -22q24 0 39 48l41 -12q-22 -92 -75 -92z" />
    <glyph glyph-name="uni00A0" unicode="&#xa0;" horiz-adv-x="196" 
 />
    <glyph glyph-name="exclamdown" unicode="&#xa1;" horiz-adv-x="226" 
d="M70 600v100h86v-100h-86zM72 0v57l22 449h37l23 -449v-57h-82z" />
    <glyph glyph-name="cent" unicode="&#xa2;" horiz-adv-x="395" 
d="M274 704l-7 -83q52 -8 96 -49l-35 -53q-39 32 -67 38l-27 -413h3q49 0 94 43l34 -50q-56 -56 -134 -56h-1l-6 -86h-53l7 94q-63 20 -100 87t-37 170v10q0 118 47.5 188t125.5 79l6 81h54zM110 348q0 -147 73 -190l28 399q-47 -10 -74 -61t-27 -141v-7z" />
    <glyph glyph-name="sterling" unicode="&#xa3;" horiz-adv-x="441" 
d="M43 0v40l61 20v247h-62v62h62v127q0 118 52 169q45 43 114 43q48 0 85 -21t57 -50l-47 -45q-38 51 -93 51q-40 0 -64 -24q-33 -33 -33 -124v-126h175v-62h-175v-244h237v-63h-369z" />
    <glyph glyph-name="yen" unicode="&#xa5;" horiz-adv-x="474" 
d="M70 268v54h118l-175 378h78l147 -338l148 338h75l-175 -378h119v-54h-134v-89h134v-55h-134v-124h-67v124h-134v55h134v89h-134z" />
    <glyph glyph-name="section" unicode="&#xa7;" horiz-adv-x="465" 
d="M313 221q62 -47 62 -103v-2q0 -55 -41.5 -90t-108.5 -35q-82 0 -147 51l33 50q55 -41 115 -41q38 0 59.5 18t21.5 47v1q0 28 -26 49t-94 49q-84 36 -118 67t-34 76v2q0 42 30 74.5t87 44.5q-62 47 -62 103v2q0 55 41.5 90t108.5 35q82 0 147 -51l-33 -50q-55 41 -115 41
q-38 0 -59.5 -18t-21.5 -47v-1q0 -28 26 -49t94 -49q85 -36 118.5 -67t33.5 -76v-2q0 -42 -30 -74.5t-87 -44.5zM268 257q39 0 67.5 22t28.5 54v3q0 27 -22.5 47.5t-77.5 43.5q-41 16 -67 16q-39 0 -67.5 -22t-28.5 -54v-3q0 -27 22.5 -47.5t77.5 -43.5q41 -16 67 -16z" />
    <glyph glyph-name="dieresis" unicode="&#xa8;" horiz-adv-x="500" 
d="M280 588v82h71v-82h-71zM149 588v82h71v-82h-71z" />
    <glyph glyph-name="copyright" unicode="&#xa9;" horiz-adv-x="632" 
d="M316 -11q-123 0 -202.5 100.5t-79.5 248.5v24q0 148 80 248.5t202 100.5q123 0 202 -100t79 -249v-23q0 -148 -79.5 -249t-201.5 -101zM316 18q111 0 181 92.5t70 228.5v23q0 136 -70 228t-181 92t-181 -92t-70 -228v-24q0 -136 70 -228t181 -92zM324 156q-59 0 -97 51
t-38 140v10q0 89 38.5 140t98.5 51q46 0 85 -33l-26 -39q-26 26 -59 26q-38 0 -63 -38t-25 -106v-10q0 -69 25 -107.5t64 -38.5q31 0 60 29l26 -37q-38 -38 -89 -38z" />
    <glyph glyph-name="ordfeminine" unicode="&#xaa;" 
d="M127 405q-33 0 -55.5 24t-22.5 64v6q0 43 24 67.5t66 24.5q28 0 55 -10v19q0 29 -15 44.5t-42 15.5q-30 0 -60 -17l-15 39q42 21 81 21q48 0 72 -29q24 -22 24 -72v-192h-45v35q-26 -40 -67 -40zM137 443q24 0 41 18t17 45v40q-27 9 -50 9q-24 0 -38 -15t-14 -40v-4
q0 -24 12 -38.5t32 -14.5zM47 307v38h202v-38h-202z" />
    <glyph glyph-name="guillemotleft" unicode="&#xab;" horiz-adv-x="434" 
d="M345 43l-141 212v8l141 211l48 -26l-113 -188l114 -190zM177 43l-140 212v8l140 211l48 -26l-114 -188l115 -190z" />
    <glyph glyph-name="registered" unicode="&#xae;" horiz-adv-x="344" 
d="M172 357q-62 0 -102.5 49.5t-40.5 122.5v12q0 74 41 124t102 50q62 0 103 -50t41 -123v-12q0 -73 -41 -123t-103 -50zM172 376q55 0 89 44t34 110v12q0 66 -34 109.5t-89 43.5t-89 -44t-34 -110v-12q0 -65 34 -109t89 -44zM120 445v187h53q29 0 45.5 -15.5t16.5 -42.5
q0 -39 -33 -54l39 -75h-32l-35 68h-26v-68h-28zM148 538h23q36 0 36 35q0 33 -36 33h-23v-68z" />
    <glyph glyph-name="macron" unicode="&#xaf;" horiz-adv-x="500" 
d="M135 595v53h230v-53h-230z" />
    <glyph glyph-name="degree" unicode="&#xb0;" horiz-adv-x="327" 
d="M163 395q-51 0 -86 42.5t-35 109.5v7q0 68 35 110.5t86 42.5q52 0 87.5 -42.5t35.5 -110.5v-7q0 -68 -35.5 -110t-87.5 -42zM163 443q32 0 52 29t20 76v5q0 47 -20 76t-52 29q-31 0 -50.5 -29t-19.5 -76v-5q0 -47 19.5 -76t50.5 -29z" />
    <glyph glyph-name="plusminus" unicode="&#xb1;" horiz-adv-x="448" 
d="M404 337h-148v-149h-64v149h-147v64h147v149h64v-149h148v-64zM403 46h-358v62h358v-62z" />
    <glyph glyph-name="two.sup" unicode="&#xb2;" 
d="M40 450v37l118 140q26 32 37 51.5t11 39.5q0 25 -16.5 39.5t-39.5 14.5q-7 0 -14 -1.5t-12 -3t-11.5 -5t-10 -5.5t-9.5 -7.5t-8 -7.5t-8.5 -8t-7.5 -7l-28 32q51 59 112 59q45 0 74 -26.5t29 -69.5q0 -31 -12.5 -54.5t-43.5 -60.5l-96 -111h155v-46h-219z" />
    <glyph glyph-name="three.sup" unicode="&#xb3;" 
d="M140 444q-60 0 -108 44l26 36q38 -36 83 -36q28 0 47.5 17.5t19.5 48.5q0 64 -97 66h-12l-4 31l98 116h-146v45h206v-37l-100 -118q104 -16 104 -103q0 -49 -33.5 -79.5t-83.5 -30.5z" />
    <glyph glyph-name="acute" unicode="&#xb4;" horiz-adv-x="500" 
d="M182 582l78 135l66 -33l-96 -102h-48z" />
    <glyph glyph-name="paragraph" unicode="&#xb6;" horiz-adv-x="397" 
d="M261 0v254h-4q-103 2 -165.5 61t-62.5 162v2q0 104 62.5 162.5t165.5 58.5h74v-700h-70z" />
    <glyph glyph-name="periodcentered" unicode="&#xb7;" horiz-adv-x="200" 
d="M56 250v102h87v-102h-87z" />
    <glyph glyph-name="cedilla" unicode="&#xb8;" horiz-adv-x="500" 
d="M234 -127l-65 27l71 113h49z" />
    <glyph glyph-name="one.sup" unicode="&#xb9;" horiz-adv-x="244" 
d="M162 450h-49v311l-71 -34l-5 47l85 40h40v-364z" />
    <glyph glyph-name="ordmasculine" unicode="&#xba;" 
d="M150 404q-48 0 -77.5 41t-29.5 105v8q0 65 29.5 105.5t77.5 40.5t78 -40.5t30 -104.5v-8q0 -64 -30.5 -105.5t-77.5 -41.5zM46 307v38h208v-38h-208zM150 446q29 0 45 29.5t16 74.5v8q0 44 -16.5 74t-44.5 30q-29 0 -45 -29.5t-16 -74.5v-7q0 -45 16.5 -75t44.5 -30z" />
    <glyph glyph-name="guillemotright" unicode="&#xbb;" horiz-adv-x="434" 
d="M257 43l-48 26l114 189l-114 189l48 27l141 -211v-8zM89 43l-48 26l114 189l-115 189l49 27l140 -211v-8z" />
    <glyph glyph-name="onequarter" unicode="&#xbc;" horiz-adv-x="620" 
d="M164 339h-49v310l-71 -33l-5 46l85 41h40v-364zM103 0l183 359l168 342h46l-182 -360l-169 -341h-46zM543 76v-77h-45v77h-151l-4 39l143 249h57v-248h40v-40h-40zM499 116v186h-3l-106 -186h109z" />
    <glyph glyph-name="onehalf" unicode="&#xbd;" horiz-adv-x="620" 
d="M356 0v37l118 140q26 32 37 51.5t11 39.5q0 25 -16.5 39.5t-39.5 14.5q-7 0 -14 -1.5t-12 -3t-11.5 -5t-10 -5.5t-9.5 -7.5t-8 -7.5t-8.5 -8t-7.5 -7l-28 32q51 59 112 59q45 0 74 -26.5t29 -69.5q0 -31 -12.5 -54.5t-43.5 -60.5l-96 -111h155v-46h-219zM83 0l183 359
l168 342h46l-182 -360l-169 -341h-46zM164 339h-49v310l-71 -33l-5 46l85 41h40v-364z" />
    <glyph glyph-name="threequarters" unicode="&#xbe;" horiz-adv-x="675" 
d="M602 76v-77h-45v77h-151l-4 39l143 249h57v-248h40v-40h-40zM558 116v186h-3l-106 -186h109zM158 0l183 359l168 342h46l-182 -360l-169 -341h-46zM142 332q-59 0 -108 45l26 35q40 -36 83 -36q28 0 47.5 18t19.5 48q0 64 -97 66h-12l-4 31l98 116h-146v46h206v-37
l-100 -118q104 -18 104 -104q0 -49 -33.5 -79.5t-83.5 -30.5z" />
    <glyph glyph-name="questiondown" unicode="&#xbf;" horiz-adv-x="389" 
d="M177 600v100h85v-100h-85zM214 -6q-81 0 -131.5 51t-50.5 129v3q0 147 157 198l10 131h44l11 -170l-5 -6q-147 -29 -147 -150v-2q0 -54 32.5 -87t83.5 -33q59 0 118 55l38 -51q-75 -68 -160 -68z" />
    <glyph glyph-name="Agrave" unicode="&#xc0;" horiz-adv-x="543" 
d="M28 0l207 704h73l208 -704h-73l-53 183h-240l-53 -183h-69zM168 246h204l-101 354zM301 752h-52l-95 85l67 32z" />
    <glyph glyph-name="Aacute" unicode="&#xc1;" horiz-adv-x="543" 
d="M28 0l207 704h73l208 -704h-73l-53 183h-240l-53 -183h-69zM168 246h204l-101 354zM241 752l80 117l68 -32l-95 -85h-53z" />
    <glyph glyph-name="Acircumflex" unicode="&#xc2;" horiz-adv-x="543" 
d="M28 0l207 704h73l208 -704h-73l-53 183h-240l-53 -183h-69zM168 246h204l-101 354zM154 751l86 109h62l86 -109h-60l-58 57l-58 -57h-58z" />
    <glyph glyph-name="Atilde" unicode="&#xc3;" horiz-adv-x="543" 
d="M28 0l207 704h73l208 -704h-73l-53 183h-240l-53 -183h-69zM168 246h204l-101 354zM331 753q-25 0 -63 21q-32 17 -45 17t-20.5 -9t-16.5 -31l-44 11q23 86 73 86q26 0 63 -21q34 -17 44 -17q13 0 21 9t17 31l43 -11q-23 -86 -72 -86z" />
    <glyph glyph-name="Adieresis" unicode="&#xc4;" horiz-adv-x="543" 
d="M28 0l207 704h73l208 -704h-73l-53 183h-240l-53 -183h-69zM168 246h204l-101 354zM304 757v81h75v-81h-75zM162 757v81h76v-81h-76z" />
    <glyph glyph-name="Aring" unicode="&#xc5;" horiz-adv-x="543" 
d="M28 0l196 666q-45 25 -45 73q0 36 27 60.5t66 24.5q38 0 64.5 -24.5t26.5 -60.5q0 -48 -44 -72l197 -667h-73l-53 183h-240l-53 -183h-69zM168 245h204l-101 355zM271 689q23 0 38 14t15 36t-15 36.5t-38 14.5t-38 -14.5t-15 -36.5t15 -36t38 -14z" />
    <glyph glyph-name="AE" unicode="&#xc6;" horiz-adv-x="708" 
d="M7 0l271 700h387v-65h-261v-250h234v-64h-234v-256h265v-65h-336v183h-185l-70 -183h-71zM172 245h161v390h-15z" />
    <glyph glyph-name="Ccedilla" unicode="&#xc7;" horiz-adv-x="476" 
d="M250 -127l-65 27l61 98q-91 19 -145.5 108.5t-54.5 237.5v11q0 164 71.5 258t181.5 94q83 0 146 -58l-39 -55q-52 47 -109 47q-77 0 -128.5 -78.5t-51.5 -208.5v-7q0 -133 51 -210.5t128 -77.5q59 0 114 52l38 -54q-66 -61 -151 -64z" />
    <glyph glyph-name="Egrave" unicode="&#xc8;" horiz-adv-x="449" 
d="M268 747h-52l-95 85l67 32zM68 0v700h338v-65h-268v-249h241v-65h-241v-256h272v-65h-342z" />
    <glyph glyph-name="Eacute" unicode="&#xc9;" horiz-adv-x="449" 
d="M209 747l80 117l68 -32l-95 -85h-53zM68 0v700h338v-65h-268v-249h241v-65h-241v-256h272v-65h-342z" />
    <glyph glyph-name="Ecircumflex" unicode="&#xca;" horiz-adv-x="449" 
d="M68 0v700h338v-65h-268v-249h241v-65h-241v-256h272v-65h-342zM123 749l86 109h62l86 -109h-60l-58 57l-58 -57h-58z" />
    <glyph glyph-name="Edieresis" unicode="&#xcb;" horiz-adv-x="449" 
d="M273 752v81h75v-81h-75zM131 752v81h76v-81h-76zM68 0v700h338v-65h-268v-249h241v-65h-241v-256h272v-65h-342z" />
    <glyph glyph-name="Igrave" unicode="&#xcc;" horiz-adv-x="218" 
d="M74 0v700h70v-700h-70zM138 747h-52l-95 85l67 32z" />
    <glyph glyph-name="Iacute" unicode="&#xcd;" horiz-adv-x="218" 
d="M74 0v700h70v-700h-70zM81 747l80 117l68 -32l-95 -85h-53z" />
    <glyph glyph-name="Icircumflex" unicode="&#xce;" horiz-adv-x="218" 
d="M74 0v700h70v-700h-70zM-7 749l86 109h62l86 -109h-60l-58 57l-58 -57h-58z" />
    <glyph glyph-name="Idieresis" unicode="&#xcf;" horiz-adv-x="218" 
d="M74 0v700h70v-700h-70zM143 752v81h75v-81h-75zM1 752v81h76v-81h-76z" />
    <glyph glyph-name="Eth" unicode="&#xd0;" horiz-adv-x="554" 
d="M82 0v320h-59v64h59v316h146q126 0 203.5 -92t77.5 -251v-14q0 -158 -77.5 -250.5t-203.5 -92.5h-146zM278 320h-125v-256h75q95 0 151.5 74t56.5 206v12q0 132 -57 206t-152 74h-74v-252h125v-64z" />
    <glyph glyph-name="Ntilde" unicode="&#xd1;" horiz-adv-x="553" 
d="M336 745q-24 0 -63 21q-32 17 -45 17t-20.5 -9t-16.5 -31l-44 11q23 86 73 86q26 0 63 -21q34 -17 44 -17q13 0 21 9t17 31l43 -11q-23 -86 -72 -86zM68 0v700h68l281 -539v539h68v-700h-61l-288 553v-553h-68z" />
    <glyph glyph-name="Ograve" unicode="&#xd2;" horiz-adv-x="566" 
d="M312 752h-52l-95 85l67 32zM283 -10q-106 0 -171.5 95.5t-65.5 256.5v15q0 162 65.5 257.5t171.5 95.5t172 -95t66 -257v-15q0 -162 -66 -257.5t-172 -95.5zM283 56q72 0 119 77.5t47 210.5v12q0 133 -47 210.5t-119 77.5t-118.5 -77.5t-46.5 -210.5v-12
q0 -133 46.5 -210.5t118.5 -77.5z" />
    <glyph glyph-name="Oacute" unicode="&#xd3;" horiz-adv-x="566" 
d="M253 752l80 117l68 -32l-95 -85h-53zM283 -10q-106 0 -171.5 95.5t-65.5 256.5v15q0 162 65.5 257.5t171.5 95.5t172 -95t66 -257v-15q0 -162 -66 -257.5t-172 -95.5zM283 56q72 0 119 77.5t47 210.5v12q0 133 -47 210.5t-119 77.5t-118.5 -77.5t-46.5 -210.5v-12
q0 -133 46.5 -210.5t118.5 -77.5z" />
    <glyph glyph-name="Ocircumflex" unicode="&#xd4;" horiz-adv-x="566" 
d="M283 -10q-106 0 -171.5 95.5t-65.5 256.5v15q0 162 65.5 257.5t171.5 95.5t172 -95t66 -257v-15q0 -162 -66 -257.5t-172 -95.5zM283 56q72 0 119 77.5t47 210.5v12q0 133 -47 210.5t-119 77.5t-118.5 -77.5t-46.5 -210.5v-12q0 -133 46.5 -210.5t118.5 -77.5zM165 754
l86 109h62l86 -109h-60l-58 57l-58 -57h-58z" />
    <glyph glyph-name="Otilde" unicode="&#xd5;" horiz-adv-x="566" 
d="M343 753q-25 0 -63 21q-32 17 -45 17t-20.5 -9t-16.5 -31l-44 11q23 86 73 86q26 0 63 -21q34 -17 44 -17q13 0 21 9t17 31l43 -11q-23 -86 -72 -86zM283 -10q-106 0 -171.5 95.5t-65.5 256.5v15q0 162 65.5 257.5t171.5 95.5t172 -95t66 -257v-15q0 -162 -66 -257.5
t-172 -95.5zM283 56q72 0 119 77.5t47 210.5v12q0 133 -47 210.5t-119 77.5t-118.5 -77.5t-46.5 -210.5v-12q0 -133 46.5 -210.5t118.5 -77.5z" />
    <glyph glyph-name="Odieresis" unicode="&#xd6;" horiz-adv-x="566" 
d="M316 757v81h75v-81h-75zM174 757v81h76v-81h-76zM283 -10q-106 0 -171.5 95.5t-65.5 256.5v15q0 162 65.5 257.5t171.5 95.5t172 -95t66 -257v-15q0 -162 -66 -257.5t-172 -95.5zM283 56q72 0 119 77.5t47 210.5v12q0 133 -47 210.5t-119 77.5t-118.5 -77.5t-46.5 -210.5
v-12q0 -133 46.5 -210.5t118.5 -77.5z" />
    <glyph glyph-name="multiply" unicode="&#xd7;" horiz-adv-x="448" 
d="M343 179l-119 128l-120 -128l-47 42l125 131l-125 130l48 43l119 -128l120 128l47 -42l-125 -131l125 -130z" />
    <glyph glyph-name="Oslash" unicode="&#xd8;" horiz-adv-x="566" 
d="M461 706h62l-61 -103q59 -96 59 -245v-15q0 -161 -66.5 -257t-172.5 -96q-82 0 -142 60l-34 -56h-63l61 103q-58 94 -58 245v15q0 161 66 257t171 96q82 0 143 -61zM116 345q0 -108 29 -180l247 421q-44 61 -110 61q-73 0 -119.5 -78t-46.5 -212v-12zM283 53
q74 0 121 77.5t47 212.5v12q0 105 -30 179l-246 -422q43 -59 108 -59z" />
    <glyph glyph-name="Ugrave" unicode="&#xd9;" horiz-adv-x="535" 
d="M297 744h-52l-95 85l67 32zM267 -10q-93 0 -148.5 62t-55.5 173v475h69v-476q0 -81 36 -125t100 -44q63 0 99 43t36 124v478h70v-474q0 -112 -55.5 -174t-150.5 -62z" />
    <glyph glyph-name="Uacute" unicode="&#xda;" horiz-adv-x="535" 
d="M238 744l80 117l68 -32l-95 -85h-53zM267 -10q-93 0 -148.5 62t-55.5 173v475h69v-476q0 -81 36 -125t100 -44q63 0 99 43t36 124v478h70v-474q0 -112 -55.5 -174t-150.5 -62z" />
    <glyph glyph-name="Ucircumflex" unicode="&#xdb;" horiz-adv-x="535" 
d="M267 -10q-93 0 -148.5 62t-55.5 173v475h69v-476q0 -81 36 -125t100 -44q63 0 99 43t36 124v478h70v-474q0 -112 -55.5 -174t-150.5 -62zM150 746l86 109h62l86 -109h-60l-58 57l-58 -57h-58z" />
    <glyph glyph-name="Udieresis" unicode="&#xdc;" horiz-adv-x="535" 
d="M300 749v81h75v-81h-75zM158 749v81h76v-81h-76zM267 -10q-93 0 -148.5 62t-55.5 173v475h69v-476q0 -81 36 -125t100 -44q63 0 99 43t36 124v478h70v-474q0 -112 -55.5 -174t-150.5 -62z" />
    <glyph glyph-name="Yacute" unicode="&#xdd;" horiz-adv-x="486" 
d="M208 0v288l-195 412h77l154 -333l154 333h75l-195 -411v-289h-70zM213 744l80 117l68 -32l-95 -85h-53z" />
    <glyph glyph-name="Thorn" unicode="&#xde;" horiz-adv-x="477" 
d="M68 0v700h71v-117h82q104 0 165.5 -59t61.5 -163v-2q0 -106 -63.5 -167.5t-167.5 -61.5h-79v-130h-70zM138 194h79q75 0 117.5 43.5t42.5 119.5v1q0 77 -42 118.5t-117 41.5h-80v-324z" />
    <glyph glyph-name="germandbls" unicode="&#xdf;" horiz-adv-x="449" 
d="M204 -2v56q69 4 105 39.5t36 96.5v2q0 121 -141 144v50q57 22 86 64t29 94v3q0 51 -25.5 80.5t-66.5 29.5q-46 0 -73 -38t-27 -103v-516h-67v513q0 95 45.5 150t123.5 55q70 0 113.5 -46t43.5 -118v-5q0 -64 -31 -109.5t-82 -68.5q140 -45 140 -177v-5q0 -88 -55.5 -139
t-153.5 -52z" />
    <glyph glyph-name="agrave" unicode="&#xe0;" horiz-adv-x="417" 
d="M170 -10q-58 0 -98.5 45t-40.5 117v7q0 78 43 123t117 45q51 0 107 -20v45q0 57 -29 87t-81 30q-58 0 -107 -33l-22 57q69 38 137 38q78 0 123 -45q45 -43 45 -130v-356h-67v73q-41 -83 -127 -83zM187 47q47 -1 79 35t32 87v84q-47 20 -96 20t-76.5 -30.5t-27.5 -81.5v-5
q0 -49 24.5 -79t64.5 -30zM189 582l-96 102l66 33l78 -135h-48z" />
    <glyph glyph-name="aacute" unicode="&#xe1;" horiz-adv-x="417" 
d="M170 -10q-58 0 -98.5 45t-40.5 117v7q0 78 43 123t117 45q51 0 107 -20v45q0 57 -29 87t-81 30q-58 0 -107 -33l-22 57q69 38 137 38q78 0 123 -45q45 -43 45 -130v-356h-67v73q-41 -83 -127 -83zM187 47q47 -1 79 35t32 87v84q-47 20 -96 20t-76.5 -30.5t-27.5 -81.5v-5
q0 -49 24.5 -79t64.5 -30zM181 582l78 135l66 -33l-96 -102h-48z" />
    <glyph glyph-name="acircumflex" unicode="&#xe2;" horiz-adv-x="417" 
d="M170 -10q-58 0 -98.5 45t-40.5 117v7q0 78 43 123t117 45q51 0 107 -20v45q0 57 -29 87t-81 30q-58 0 -107 -33l-22 57q69 38 137 38q78 0 123 -45q45 -43 45 -130v-356h-67v73q-41 -83 -127 -83zM187 47q47 -1 79 35t32 87v84q-47 20 -96 20t-76.5 -30.5t-27.5 -81.5v-5
q0 -49 24.5 -79t64.5 -30zM100 584l81 128h56l81 -128h-53l-57 70l-57 -70h-51z" />
    <glyph glyph-name="atilde" unicode="&#xe3;" horiz-adv-x="417" 
d="M170 -10q-58 0 -98.5 45t-40.5 117v7q0 78 43 123t117 45q51 0 107 -20v45q0 57 -29 87t-81 30q-58 0 -107 -33l-22 57q69 38 137 38q78 0 123 -45q45 -43 45 -130v-356h-67v73q-41 -83 -127 -83zM187 47q47 -1 79 35t32 87v84q-47 20 -96 20t-76.5 -30.5t-27.5 -81.5v-5
q0 -49 24.5 -79t64.5 -30zM266 582q-25 0 -59 24q-31 21 -44 21q-12 0 -19.5 -10.5t-15.5 -35.5l-43 11q12 48 28.5 69.5t42.5 21.5q25 0 59 -24q29 -20 44 -20q12 0 19.5 10t15.5 35l43 -11q-12 -48 -28.5 -69.5t-42.5 -21.5z" />
    <glyph glyph-name="adieresis" unicode="&#xe4;" horiz-adv-x="417" 
d="M170 -10q-58 0 -98.5 45t-40.5 117v7q0 78 43 123t117 45q51 0 107 -20v45q0 57 -29 87t-81 30q-58 0 -107 -33l-22 57q69 38 137 38q78 0 123 -45q45 -43 45 -130v-356h-67v73q-41 -83 -127 -83zM187 47q47 -1 79 35t32 87v84q-47 20 -96 20t-76.5 -30.5t-27.5 -81.5v-5
q0 -49 24.5 -79t64.5 -30zM239 588v82h71v-82h-71zM108 588v82h71v-82h-71z" />
    <glyph glyph-name="aring" unicode="&#xe5;" horiz-adv-x="417" 
d="M170 -10q-58 0 -98.5 45t-40.5 117v7q0 78 43 123t117 45q51 0 107 -20v45q0 57 -29 87t-81 30q-58 0 -107 -33l-22 57q69 38 137 38q78 0 123 -45q45 -43 45 -130v-356h-67v73q-41 -83 -127 -83zM187 47q47 -1 79 35t32 87v84q-47 20 -96 20t-76.5 -30.5t-27.5 -81.5v-5
q0 -49 24.5 -79t64.5 -30zM208 581q-38 0 -63.5 25.5t-25.5 63.5q0 37 26.5 62.5t64.5 25.5q37 0 63 -25.5t26 -62.5t-26.5 -63t-64.5 -26zM209 613q23 0 38.5 16.5t15.5 40.5q0 23 -15.5 39.5t-38.5 16.5t-38.5 -16.5t-15.5 -39.5q0 -24 15.5 -40.5t38.5 -16.5z" />
    <glyph glyph-name="ae" unicode="&#xe6;" horiz-adv-x="677" 
d="M174 -10q-62 0 -102.5 45.5t-40.5 118.5v5q0 78 43 123t116 45q49 0 105 -20v45q0 57 -28 87t-81 30t-105 -31l-22 59q70 34 133 34q112 0 144 -90q47 93 135 93q78 0 124.5 -71.5t46.5 -193.5v-35h-284q4 -87 42.5 -135t94.5 -48q57 0 105 46l32 -51q-70 -56 -142 -56
q-110 0 -162 112q-56 -112 -154 -112zM187 47q39 0 70 30t50 77q-10 47 -12 100q-50 19 -95 19q-49 0 -75.5 -30t-26.5 -81v-6q0 -49 24.5 -79t64.5 -30zM358 288h218q-2 82 -30.5 134t-76.5 52q-46 0 -76.5 -49.5t-34.5 -136.5z" />
    <glyph glyph-name="ccedilla" unicode="&#xe7;" horiz-adv-x="371" 
d="M189 -127l-65 27l60 96q-67 16 -107 83t-40 175v13q0 125 55.5 196t139.5 71q62 0 115 -46l-34 -55q-38 38 -82 38q-52 0 -89 -56t-37 -151v-8q0 -97 37.5 -150.5t89.5 -52.5q42 1 81 40l35 -49q-48 -51 -113 -54z" />
    <glyph glyph-name="egrave" unicode="&#xe8;" horiz-adv-x="423" 
d="M237 -10q-87 0 -143.5 70.5t-56.5 193.5v10q0 124 51 197t128 73q79 0 125.5 -71.5t46.5 -193.5v-35h-284q4 -86 43 -134.5t96 -48.5q52 0 103 46l32 -51q-64 -56 -141 -56zM103 288h219q-2 82 -30 134t-76 52q-46 0 -77.5 -49.5t-35.5 -136.5zM196 582l-96 102l66 33
l78 -135h-48z" />
    <glyph glyph-name="eacute" unicode="&#xe9;" horiz-adv-x="423" 
d="M237 -10q-87 0 -143.5 70.5t-56.5 193.5v10q0 124 51 197t128 73q79 0 125.5 -71.5t46.5 -193.5v-35h-284q4 -86 43 -134.5t96 -48.5q52 0 103 46l32 -51q-64 -56 -141 -56zM103 288h219q-2 82 -30 134t-76 52q-46 0 -77.5 -49.5t-35.5 -136.5zM187 582l78 135l66 -33
l-96 -102h-48z" />
    <glyph glyph-name="ecircumflex" unicode="&#xea;" horiz-adv-x="423" 
d="M237 -10q-87 0 -143.5 70.5t-56.5 193.5v10q0 124 51 197t128 73q79 0 125.5 -71.5t46.5 -193.5v-35h-284q4 -86 43 -134.5t96 -48.5q52 0 103 46l32 -51q-64 -56 -141 -56zM103 288h219q-2 82 -30 134t-76 52q-46 0 -77.5 -49.5t-35.5 -136.5zM107 584l81 128h56
l81 -128h-53l-57 70l-57 -70h-51z" />
    <glyph glyph-name="edieresis" unicode="&#xeb;" horiz-adv-x="423" 
d="M237 -10q-87 0 -143.5 70.5t-56.5 193.5v10q0 124 51 197t128 73q79 0 125.5 -71.5t46.5 -193.5v-35h-284q4 -86 43 -134.5t96 -48.5q52 0 103 46l32 -51q-64 -56 -141 -56zM103 288h219q-2 82 -30 134t-76 52q-46 0 -77.5 -49.5t-35.5 -136.5zM246 588v82h71v-82h-71z
M115 588v82h71v-82h-71z" />
    <glyph glyph-name="igrave" unicode="&#xec;" horiz-adv-x="197" 
d="M65 0v525h67v-525h-67zM79 582l-96 102l66 33l78 -135h-48z" />
    <glyph glyph-name="iacute" unicode="&#xed;" horiz-adv-x="197" 
d="M72 582l78 135l66 -33l-96 -102h-48zM65 0v525h67v-525h-67z" />
    <glyph glyph-name="icircumflex" unicode="&#xee;" horiz-adv-x="197" 
d="M-10 584l81 128h56l81 -128h-53l-57 70l-57 -70h-51zM65 0v525h67v-525h-67z" />
    <glyph glyph-name="idieresis" unicode="&#xef;" horiz-adv-x="197" 
d="M129 588v82h71v-82h-71zM-2 588v82h71v-82h-71zM65 0v525h67v-525h-67z" />
    <glyph glyph-name="eth" unicode="&#xf0;" horiz-adv-x="452" 
d="M356 672l-69 -34q126 -171 126 -351v-13q0 -133 -53 -208.5t-137 -75.5q-78 0 -132 74t-54 193v12q0 116 51 187.5t120 71.5q58 0 107 -54q-28 69 -83 137l-85 -41l-22 44l75 36q-19 22 -61 64h84q22 -24 32 -37l79 39zM226 51q52 0 86 57t34 150v8q0 94 -35.5 149.5
t-88.5 55.5q-51 0 -84 -57t-33 -148v-8q0 -91 34.5 -149t86.5 -58z" />
    <glyph glyph-name="ntilde" unicode="&#xf1;" horiz-adv-x="448" 
d="M60 0v525h67v-79q43 88 128 88q64 0 101.5 -44.5t37.5 -125.5v-364h-67v343q0 131 -95 131q-46 0 -75.5 -36.5t-29.5 -95.5v-342h-67zM285 582q-25 0 -59 24q-31 21 -44 21q-12 0 -19.5 -10.5t-15.5 -35.5l-43 11q12 48 28.5 69.5t42.5 21.5q25 0 59 -24q29 -20 44 -20
q12 0 19.5 10t15.5 35l43 -11q-12 -48 -28.5 -69.5t-42.5 -21.5z" />
    <glyph glyph-name="ograve" unicode="&#xf2;" horiz-adv-x="452" 
d="M226 -10q-83 0 -136 74t-53 193v11q0 118 54 192t136 74t135 -74t53 -192v-11q0 -118 -53.5 -192.5t-135.5 -74.5zM227 51q52 0 86 58t34 149v8q0 91 -34.5 149t-86.5 58t-86.5 -57.5t-34.5 -149.5v-8q0 -91 35 -149t87 -58zM207 582l-96 102l66 33l78 -135h-48z" />
    <glyph glyph-name="oacute" unicode="&#xf3;" horiz-adv-x="452" 
d="M197 582l78 135l66 -33l-96 -102h-48zM226 -10q-83 0 -136 74t-53 193v11q0 118 54 192t136 74t135 -74t53 -192v-11q0 -118 -53.5 -192.5t-135.5 -74.5zM227 51q52 0 86 58t34 149v8q0 91 -34.5 149t-86.5 58t-86.5 -57.5t-34.5 -149.5v-8q0 -91 35 -149t87 -58z" />
    <glyph glyph-name="ocircumflex" unicode="&#xf4;" horiz-adv-x="452" 
d="M118 584l81 128h56l81 -128h-53l-57 70l-57 -70h-51zM226 -10q-83 0 -136 74t-53 193v11q0 118 54 192t136 74t135 -74t53 -192v-11q0 -118 -53.5 -192.5t-135.5 -74.5zM227 51q52 0 86 58t34 149v8q0 91 -34.5 149t-86.5 58t-86.5 -57.5t-34.5 -149.5v-8q0 -91 35 -149
t87 -58z" />
    <glyph glyph-name="otilde" unicode="&#xf5;" horiz-adv-x="452" 
d="M226 -10q-83 0 -136 74t-53 193v11q0 118 54 192t136 74t135 -74t53 -192v-11q0 -118 -53.5 -192.5t-135.5 -74.5zM227 51q52 0 86 58t34 149v8q0 91 -34.5 149t-86.5 58t-86.5 -57.5t-34.5 -149.5v-8q0 -91 35 -149t87 -58zM285 582q-25 0 -59 24q-31 21 -44 21
q-12 0 -19.5 -10.5t-15.5 -35.5l-43 11q12 48 28.5 69.5t42.5 21.5q25 0 59 -24q29 -20 44 -20q12 0 19.5 10t15.5 35l43 -11q-12 -48 -28.5 -69.5t-42.5 -21.5z" />
    <glyph glyph-name="odieresis" unicode="&#xf6;" horiz-adv-x="452" 
d="M257 588v82h71v-82h-71zM126 588v82h71v-82h-71zM226 -10q-83 0 -136 74t-53 193v11q0 118 54 192t136 74t135 -74t53 -192v-11q0 -118 -53.5 -192.5t-135.5 -74.5zM227 51q52 0 86 58t34 149v8q0 91 -34.5 149t-86.5 58t-86.5 -57.5t-34.5 -149.5v-8q0 -91 35 -149
t87 -58z" />
    <glyph glyph-name="divide" unicode="&#xf7;" horiz-adv-x="448" 
d="M183 466v90h82v-90h-82zM406 320h-364v64h364v-64zM183 148v90h82v-90h-82z" />
    <glyph glyph-name="oslash" unicode="&#xf8;" horiz-adv-x="452" 
d="M362 530h58l-51 -81q46 -73 46 -181v-11q0 -118 -54 -192.5t-135 -74.5q-62 0 -110 45l-26 -41h-58l51 81q-46 73 -46 182v11q0 118 54.5 192t135.5 74q61 0 109 -45zM227 50q54 0 88.5 58t34.5 150v8q0 66 -20 121l-182 -295q32 -42 79 -42zM103 259q0 -70 19 -121
l183 294q-34 43 -79 43q-54 0 -88.5 -58.5t-34.5 -150.5v-7z" />
    <glyph glyph-name="ugrave" unicode="&#xf9;" horiz-adv-x="448" 
d="M193 -9q-64 0 -101.5 44.5t-37.5 125.5v364h68v-343q0 -131 94 -131q46 0 75.5 36.5t29.5 96.5v341h67v-525h-67v79q-43 -88 -128 -88zM202 580l-96 102l66 33l78 -135h-48z" />
    <glyph glyph-name="uacute" unicode="&#xfa;" horiz-adv-x="448" 
d="M193 580l78 135l66 -33l-96 -102h-48zM193 -9q-64 0 -101.5 44.5t-37.5 125.5v364h68v-343q0 -131 94 -131q46 0 75.5 36.5t29.5 96.5v341h67v-525h-67v79q-43 -88 -128 -88z" />
    <glyph glyph-name="ucircumflex" unicode="&#xfb;" horiz-adv-x="448" 
d="M113 582l81 128h56l81 -128h-53l-57 70l-57 -70h-51zM193 -9q-64 0 -101.5 44.5t-37.5 125.5v364h68v-343q0 -131 94 -131q46 0 75.5 36.5t29.5 96.5v341h67v-525h-67v79q-43 -88 -128 -88z" />
    <glyph glyph-name="udieresis" unicode="&#xfc;" horiz-adv-x="448" 
d="M252 586v82h71v-82h-71zM121 586v82h71v-82h-71zM193 -9q-64 0 -101.5 44.5t-37.5 125.5v364h68v-343q0 -131 94 -131q46 0 75.5 36.5t29.5 96.5v341h67v-525h-67v79q-43 -88 -128 -88z" />
    <glyph glyph-name="yacute" unicode="&#xfd;" horiz-adv-x="424" 
d="M217 99l111 426h69l-147 -525q-23 -79 -53.5 -111t-78.5 -32q-41 0 -75 22l18 57q26 -17 52 -17q25 0 41 17t31 61l-159 528h70zM185 580l78 135l66 -33l-96 -102h-48z" />
    <glyph glyph-name="thorn" unicode="&#xfe;" horiz-adv-x="466" 
d="M60 -140v854h67v-285q49 105 134 105q68 0 117 -69t49 -193v-19q0 -123 -48.5 -192.5t-117.5 -69.5q-85 0 -134 103v-234h-67zM245 52q49 0 81.5 55t32.5 148v14q0 93 -33 148.5t-81 55.5q-50 0 -85.5 -55.5t-35.5 -146.5v-18q0 -91 35.5 -146t85.5 -55z" />
    <glyph glyph-name="ydieresis" unicode="&#xff;" horiz-adv-x="424" 
d="M217 99l111 426h69l-147 -525q-23 -79 -53.5 -111t-78.5 -32q-41 0 -75 22l18 57q26 -17 52 -17q25 0 41 17t31 61l-159 528h70zM243 586v82h71v-82h-71zM112 586v82h71v-82h-71z" />
    <glyph glyph-name="Amacron" unicode="&#x100;" horiz-adv-x="543" 
d="M28 0l207 704h73l208 -704h-73l-53 183h-240l-53 -183h-69zM168 246h204l-101 354zM146 766v55h250v-55h-250z" />
    <glyph glyph-name="amacron" unicode="&#x101;" horiz-adv-x="417" 
d="M170 -10q-58 0 -98.5 45t-40.5 117v7q0 78 43 123t117 45q51 0 107 -20v45q0 57 -29 87t-81 30q-58 0 -107 -33l-22 57q69 38 137 38q78 0 123 -45q45 -43 45 -130v-356h-67v73q-41 -83 -127 -83zM187 47q47 -1 79 35t32 87v84q-47 20 -96 20t-76.5 -30.5t-27.5 -81.5v-5
q0 -49 24.5 -79t64.5 -30zM94 595v53h230v-53h-230z" />
    <glyph glyph-name="Abreve" unicode="&#x102;" horiz-adv-x="543" 
d="M28 0l207 704h73l208 -704h-73l-53 183h-240l-53 -183h-69zM168 246h204l-101 354zM271 752q-49 0 -81 25t-36 71h51q14 -43 66 -43t66 43h51q-4 -46 -36 -71t-81 -25z" />
    <glyph glyph-name="abreve" unicode="&#x103;" horiz-adv-x="417" 
d="M170 -10q-58 0 -98.5 45t-40.5 117v7q0 78 43 123t117 45q51 0 107 -20v45q0 57 -29 87t-81 30q-58 0 -107 -33l-22 57q69 38 137 38q78 0 123 -45q45 -43 45 -130v-356h-67v73q-41 -83 -127 -83zM187 47q47 -1 79 35t32 87v84q-47 20 -96 20t-76.5 -30.5t-27.5 -81.5v-5
q0 -49 24.5 -79t64.5 -30zM209 581q-48 0 -79.5 28t-35.5 81h49q12 -56 66 -56t66 56h49q-4 -53 -35.5 -81t-79.5 -28z" />
    <glyph glyph-name="Aogonek" unicode="&#x104;" horiz-adv-x="543" 
d="M519 -95v-43q-10 -1 -21 -1q-44 0 -66 16.5t-22 45.5q0 35 40 77h-7l-53 183h-240l-53 -183h-69l207 704h73l208 -704h-17q-31 -38 -31 -62q0 -32 51 -33zM168 246h204l-101 354z" />
    <glyph glyph-name="aogonek" unicode="&#x105;" horiz-adv-x="417" 
d="M370 -95v-43q-10 -1 -21 -1q-44 0 -66 16.5t-22 45.5q0 35 40 77h-4v73q-41 -83 -127 -83q-58 0 -98.5 45t-40.5 117v7q0 78 43 123t117 45q51 0 107 -20v45q0 57 -29 87t-81 30q-58 0 -107 -33l-22 57q69 38 137 38q78 0 123 -45q45 -43 45 -130v-356h-14
q-31 -38 -31 -62q0 -32 51 -33zM187 47q47 -1 79 35t32 87v84q-47 20 -96 20t-76.5 -30.5t-27.5 -81.5v-5q0 -49 24.5 -79t64.5 -30z" />
    <glyph glyph-name="Cacute" unicode="&#x106;" horiz-adv-x="476" 
d="M292 -7q-109 0 -177.5 92.5t-68.5 258.5v11q0 164 71.5 258t181.5 94q83 0 146 -58l-39 -55q-52 47 -109 47q-77 0 -128.5 -78.5t-51.5 -208.5v-7q0 -133 51 -210.5t128 -77.5q59 0 114 52l38 -54q-69 -64 -156 -64zM249 752l80 117l68 -32l-95 -85h-53z" />
    <glyph glyph-name="cacute" unicode="&#x107;" horiz-adv-x="371" 
d="M190 582l78 135l66 -33l-96 -102h-48zM228 -10q-85 0 -138 69.5t-53 194.5v13q0 125 55.5 196t139.5 71q62 0 115 -46l-34 -55q-38 38 -82 38q-52 0 -89 -56t-37 -151v-8q0 -97 37.5 -150.5t89.5 -52.5q42 1 81 40l35 -49q-50 -54 -120 -54z" />
    <glyph glyph-name="Cdotaccent" unicode="&#x10a;" horiz-adv-x="476" 
d="M239 757v81h78v-81h-78zM292 -7q-109 0 -177.5 92.5t-68.5 258.5v11q0 164 71.5 258t181.5 94q83 0 146 -58l-39 -55q-52 47 -109 47q-77 0 -128.5 -78.5t-51.5 -208.5v-7q0 -133 51 -210.5t128 -77.5q59 0 114 52l38 -54q-69 -64 -156 -64z" />
    <glyph glyph-name="cdotaccent" unicode="&#x10b;" horiz-adv-x="371" 
d="M228 -10q-85 0 -138 69.5t-53 194.5v13q0 125 55.5 196t139.5 71q62 0 115 -46l-34 -55q-38 38 -82 38q-52 0 -89 -56t-37 -151v-8q0 -97 37.5 -150.5t89.5 -52.5q42 1 81 40l35 -49q-50 -54 -120 -54zM183 588v83h74v-83h-74z" />
    <glyph glyph-name="Ccaron" unicode="&#x10c;" horiz-adv-x="476" 
d="M292 -7q-109 0 -177.5 92.5t-68.5 258.5v11q0 164 71.5 258t181.5 94q83 0 146 -58l-39 -55q-52 47 -109 47q-77 0 -128.5 -78.5t-51.5 -208.5v-7q0 -133 51 -210.5t128 -77.5q59 0 114 52l38 -54q-69 -64 -156 -64zM395 863l-86 -109h-62l-86 109h60l58 -57l58 57h58z
" />
    <glyph glyph-name="ccaron" unicode="&#x10d;" horiz-adv-x="371" 
d="M329 712l-81 -128h-56l-81 128h53l57 -70l57 70h51zM228 -10q-85 0 -138 69.5t-53 194.5v13q0 125 55.5 196t139.5 71q62 0 115 -46l-34 -55q-38 38 -82 38q-52 0 -89 -56t-37 -151v-8q0 -97 37.5 -150.5t89.5 -52.5q42 1 81 40l35 -49q-50 -54 -120 -54z" />
    <glyph glyph-name="Dcaron" unicode="&#x10e;" horiz-adv-x="539" 
d="M68 0v700h145q127 0 203.5 -91.5t76.5 -251.5v-14q0 -159 -76.5 -251t-203.5 -92h-145zM210 636h-72v-572h72q96 0 154 74t58 206v12q0 131 -58 205.5t-154 74.5zM375 858l-86 -109h-62l-86 109h60l58 -57l58 57h58z" />
    <glyph glyph-name="dcaron" unicode="&#x10f;" horiz-adv-x="466" 
d="M447 567l10 155h56v-3l-35 -152h-31zM203 -9q-69 0 -116.5 68t-47.5 194v19q0 125 47.5 193.5t116.5 68.5q87 0 136 -103v283h68v-714h-68v96q-49 -105 -136 -105zM218 52q52 0 88 55.5t36 146.5v18q0 91 -36 146t-88 55q-48 0 -79.5 -53.5t-31.5 -149.5v-14
q0 -96 31.5 -150t79.5 -54z" />
    <glyph glyph-name="Dcroat" unicode="&#x110;" horiz-adv-x="554" 
d="M82 0v320h-59v64h59v316h146q126 0 203.5 -92t77.5 -251v-14q0 -158 -77.5 -250.5t-203.5 -92.5h-146zM278 320h-125v-256h75q95 0 151.5 74t56.5 206v12q0 132 -57 206t-152 74h-74v-252h125v-64z" />
    <glyph glyph-name="dcroat" unicode="&#x111;" horiz-adv-x="466" 
d="M217 600v51h122v63h68v-63h51v-52h-51v-599h-68v96q-49 -105 -133 -105q-70 0 -118.5 69t-48.5 193v19q0 123 49 192.5t118 69.5q83 0 133 -103v169h-122zM221 52q49 0 84.5 55t35.5 146v18q0 91 -35.5 146.5t-84.5 55.5t-81.5 -54.5t-32.5 -148.5v-15q0 -93 32.5 -148
t81.5 -55z" />
    <glyph glyph-name="Emacron" unicode="&#x112;" horiz-adv-x="449" 
d="M115 761v55h250v-55h-250zM68 0v700h338v-65h-268v-249h241v-65h-241v-256h272v-65h-342z" />
    <glyph glyph-name="emacron" unicode="&#x113;" horiz-adv-x="423" 
d="M237 -10q-87 0 -143.5 70.5t-56.5 193.5v10q0 124 51 197t128 73q79 0 125.5 -71.5t46.5 -193.5v-35h-284q4 -86 43 -134.5t96 -48.5q52 0 103 46l32 -51q-64 -56 -141 -56zM103 288h219q-2 82 -30 134t-76 52q-46 0 -77.5 -49.5t-35.5 -136.5zM101 595v53h230v-53h-230z
" />
    <glyph glyph-name="Ebreve" unicode="&#x114;" horiz-adv-x="449" 
d="M240 747q-49 0 -81 25t-36 71h51q14 -43 66 -43t66 43h51q-4 -46 -36 -71t-81 -25zM68 0v700h338v-65h-268v-249h241v-65h-241v-256h272v-65h-342z" />
    <glyph glyph-name="ebreve" unicode="&#x115;" horiz-adv-x="423" 
d="M237 -10q-87 0 -143.5 70.5t-56.5 193.5v10q0 124 51 197t128 73q79 0 125.5 -71.5t46.5 -193.5v-35h-284q4 -86 43 -134.5t96 -48.5q52 0 103 46l32 -51q-64 -56 -141 -56zM103 288h219q-2 82 -30 134t-76 52q-46 0 -77.5 -49.5t-35.5 -136.5zM216 581q-48 0 -79.5 28
t-35.5 81h49q12 -56 66 -56t66 56h49q-4 -53 -35.5 -81t-79.5 -28z" />
    <glyph glyph-name="Edotaccent" unicode="&#x116;" horiz-adv-x="449" 
d="M201 752v81h78v-81h-78zM68 0v700h338v-65h-268v-249h241v-65h-241v-256h272v-65h-342z" />
    <glyph glyph-name="edotaccent" unicode="&#x117;" horiz-adv-x="423" 
d="M237 -10q-87 0 -143.5 70.5t-56.5 193.5v10q0 124 51 197t128 73q79 0 125.5 -71.5t46.5 -193.5v-35h-284q4 -86 43 -134.5t96 -48.5q52 0 103 46l32 -51q-64 -56 -141 -56zM103 288h219q-2 82 -30 134t-76 52q-46 0 -77.5 -49.5t-35.5 -136.5zM179 588v83h74v-83h-74z
" />
    <glyph glyph-name="Eogonek" unicode="&#x118;" horiz-adv-x="449" 
d="M68 0v700h338v-65h-268v-249h241v-65h-241v-256h272v-65h-22q-31 -38 -31 -62q0 -32 51 -33v-43q-10 -1 -21 -1q-44 0 -66 16.5t-22 45.5q0 35 40 77h-271z" />
    <glyph glyph-name="eogonek" unicode="&#x119;" horiz-adv-x="423" 
d="M346 97l32 -51l-29 -28q-14 -13 -31.5 -37t-17.5 -43q0 -32 52 -33v-43q-11 -1 -22 -1q-44 0 -66 16.5t-22 44.5q0 34 38 74q-21 -6 -43 -6q-87 0 -143.5 70.5t-56.5 193.5v10q0 124 51 197t128 73q79 0 125.5 -71.5t46.5 -193.5v-35h-284q4 -86 43 -134.5t96 -48.5
q52 0 103 46zM103 288h219q-2 82 -30 134t-76 52q-46 0 -77.5 -49.5t-35.5 -136.5z" />
    <glyph glyph-name="Ecaron" unicode="&#x11a;" horiz-adv-x="449" 
d="M357 858l-86 -109h-62l-86 109h60l58 -57l58 57h58zM68 0v700h338v-65h-268v-249h241v-65h-241v-256h272v-65h-342z" />
    <glyph glyph-name="ecaron" unicode="&#x11b;" horiz-adv-x="423" 
d="M237 -10q-87 0 -143.5 70.5t-56.5 193.5v10q0 124 51 197t128 73q79 0 125.5 -71.5t46.5 -193.5v-35h-284q4 -86 43 -134.5t96 -48.5q52 0 103 46l32 -51q-64 -56 -141 -56zM103 288h219q-2 82 -30 134t-76 52q-46 0 -77.5 -49.5t-35.5 -136.5zM325 712l-81 -128h-56
l-81 128h53l57 -70l57 70h51z" />
    <glyph glyph-name="Gbreve" unicode="&#x11e;" horiz-adv-x="534" 
d="M291 752q-49 0 -81 25t-36 71h51q14 -43 66 -43t66 43h51q-4 -46 -36 -71t-81 -25zM310 -7q-120 0 -192 93t-72 257v13q0 160 74 255.5t191 95.5q91 0 159 -55l-40 -59q-50 48 -118 48q-84 0 -139.5 -77.5t-55.5 -208.5v-9q0 -137 54.5 -213t143.5 -76q53 0 94 27v223
h-134v64h201v-324q-76 -54 -166 -54z" />
    <glyph glyph-name="gbreve" unicode="&#x11f;" horiz-adv-x="466" 
d="M214 -142q-79 0 -157 39l21 57q63 -36 133 -36q128 0 128 126v92q-50 -104 -137 -104q-69 0 -116 65t-47 183v6q0 118 47.5 183t116.5 65q86 0 136 -101v92h68v-480q0 -88 -48 -136q-49 -51 -145 -51zM219 93q49 0 85.5 51.5t36.5 136.5v5q0 85 -36.5 136t-85.5 51
q-48 0 -80 -50t-32 -138v-3q0 -88 32 -138.5t80 -50.5zM239 581q-48 0 -79.5 28t-35.5 81h49q12 -56 66 -56t66 56h49q-4 -53 -35.5 -81t-79.5 -28z" />
    <glyph glyph-name="Gdotaccent" unicode="&#x120;" horiz-adv-x="534" 
d="M252 757v81h78v-81h-78zM310 -7q-120 0 -192 93t-72 257v13q0 160 74 255.5t191 95.5q91 0 159 -55l-40 -59q-50 48 -118 48q-84 0 -139.5 -77.5t-55.5 -208.5v-9q0 -137 54.5 -213t143.5 -76q53 0 94 27v223h-134v64h201v-324q-76 -54 -166 -54z" />
    <glyph glyph-name="gdotaccent" unicode="&#x121;" horiz-adv-x="466" 
d="M214 -142q-79 0 -157 39l21 57q63 -36 133 -36q128 0 128 126v92q-50 -104 -137 -104q-69 0 -116 65t-47 183v6q0 118 47.5 183t116.5 65q86 0 136 -101v92h68v-480q0 -88 -48 -136q-49 -51 -145 -51zM219 93q49 0 85.5 51.5t36.5 136.5v5q0 85 -36.5 136t-85.5 51
q-48 0 -80 -50t-32 -138v-3q0 -88 32 -138.5t80 -50.5zM202 588v83h74v-83h-74z" />
    <glyph glyph-name="Gcommaaccent" unicode="&#x122;" horiz-adv-x="534" 
d="M252 -213l-9 26q25 8 34.5 20.5t8.5 34.5h-32v72h72v-65q0 -38 -18 -58.5t-56 -29.5zM310 -7q-120 0 -192 93t-72 257v13q0 160 74 255.5t191 95.5q91 0 159 -55l-40 -59q-50 48 -118 48q-84 0 -139.5 -77.5t-55.5 -208.5v-9q0 -137 54.5 -213t143.5 -76q53 0 94 27v223
h-134v64h201v-324q-76 -54 -166 -54z" />
    <glyph glyph-name="gcommaaccent" unicode="&#x123;" horiz-adv-x="466" 
d="M274 747l9 -26q-25 -8 -34.5 -20.5t-8.5 -34.5h32v-72h-72v65q0 38 18 58.5t56 29.5zM214 -142q-79 0 -157 39l21 57q63 -36 133 -36q128 0 128 126v92q-50 -104 -137 -104q-69 0 -116 65t-47 183v6q0 118 47.5 183t116.5 65q86 0 136 -101v92h68v-480q0 -88 -48 -136
q-49 -51 -145 -51zM219 93q49 0 85.5 51.5t36.5 136.5v5q0 85 -36.5 136t-85.5 51q-48 0 -80 -50t-32 -138v-3q0 -88 32 -138.5t80 -50.5z" />
    <glyph glyph-name="Hbar" unicode="&#x126;" horiz-adv-x="563" 
d="M21 533v57h58v110h71v-110h263v110h70v-110h59v-57h-59v-533h-70v318h-263v-318h-71v533h-58zM150 384h263v150h-263v-150z" />
    <glyph glyph-name="hbar" unicode="&#x127;" horiz-adv-x="448" 
d="M250 600h-123v-154q43 88 126 88q65 0 103 -47t38 -127v-360h-67v347q0 61 -25 94t-70 33q-46 0 -75.5 -36.5t-29.5 -95.5v-342h-67v599h-53v52h53v63h67v-63h123v-51z" />
    <glyph glyph-name="Imacron" unicode="&#x12a;" horiz-adv-x="218" 
d="M74 0v700h70v-700h-70zM-15 761v55h250v-55h-250z" />
    <glyph glyph-name="imacron" unicode="&#x12b;" horiz-adv-x="197" 
d="M65 0v525h67v-525h-67zM-16 595v53h230v-53h-230z" />
    <glyph glyph-name="Ibreve" unicode="&#x12c;" horiz-adv-x="218" 
d="M74 0v700h70v-700h-70zM110 747q-49 0 -81 25t-36 71h51q14 -43 66 -43t66 43h51q-4 -46 -36 -71t-81 -25z" />
    <glyph glyph-name="ibreve" unicode="&#x12d;" horiz-adv-x="197" 
d="M65 0v525h67v-525h-67zM99 581q-48 0 -79.5 28t-35.5 81h49q12 -56 66 -56t66 56h49q-4 -53 -35.5 -81t-79.5 -28z" />
    <glyph glyph-name="Iogonek" unicode="&#x12e;" horiz-adv-x="218" 
d="M74 0v700h70v-700h-11q-31 -38 -31 -62q0 -32 51 -33v-43q-10 -1 -21 -1q-44 0 -66 16.5t-22 45.5q0 35 40 77h-10z" />
    <glyph glyph-name="iogonek" unicode="&#x12f;" horiz-adv-x="197" 
d="M65 0v525h67v-525h-9q-31 -38 -31 -62q0 -32 51 -33v-43q-10 -1 -21 -1q-44 0 -66 16.5t-22 45.5q0 35 40 77h-9zM62 626v84h73v-84h-73z" />
    <glyph glyph-name="Idotaccent" unicode="&#x130;" horiz-adv-x="218" 
d="M74 0v700h70v-700h-70zM71 752v81h78v-81h-78z" />
    <glyph glyph-name="dotlessi" unicode="&#x131;" horiz-adv-x="197" 
d="M65 0v525h67v-525h-67z" />
    <glyph glyph-name="Kcommaaccent" unicode="&#x136;" horiz-adv-x="500" 
d="M215 -208l-9 26q25 8 34.5 20.5t8.5 34.5h-32v72h72v-65q0 -38 -18 -58.5t-56 -29.5zM68 0v700h70v-389l253 389h82l-205 -307l220 -393h-82l-185 327l-83 -122v-205h-70z" />
    <glyph glyph-name="kcommaaccent" unicode="&#x137;" horiz-adv-x="407" 
d="M173 -209l-9 26q25 8 34.5 20.5t8.5 34.5h-32v72h72v-65q0 -38 -18 -58.5t-56 -29.5zM60 0v714h67v-464l177 275h76l-144 -216l151 -309h-77l-120 249l-63 -94v-155h-67z" />
    <glyph glyph-name="Lacute" unicode="&#x139;" horiz-adv-x="406" 
d="M86 747l80 117l68 -32l-95 -85h-53zM68 0v700h70v-635h245v-65h-315z" />
    <glyph glyph-name="lacute" unicode="&#x13a;" horiz-adv-x="197" 
d="M74 752l80 117l68 -32l-95 -85h-53zM65 0v714h67v-714h-67z" />
    <glyph glyph-name="Lcommaaccent" unicode="&#x13b;" horiz-adv-x="406" 
d="M185 -211l-9 26q25 8 34.5 20.5t8.5 34.5h-32v72h72v-65q0 -38 -18 -58.5t-56 -29.5zM68 0v700h70v-635h245v-65h-315z" />
    <glyph glyph-name="lcommaaccent" unicode="&#x13c;" horiz-adv-x="197" 
d="M60 -211l-9 26q25 8 34.5 20.5t8.5 34.5h-32v72h72v-65q0 -38 -18 -58.5t-56 -29.5zM65 0v714h67v-714h-67z" />
    <glyph glyph-name="Lcaron" unicode="&#x13d;" horiz-adv-x="406" 
d="M194 546l10 155h56v-3l-35 -152h-31zM68 0v700h70v-635h245v-65h-315z" />
    <glyph glyph-name="lcaron" unicode="&#x13e;" horiz-adv-x="197" 
d="M174 567l10 155h56v-3l-35 -152h-31zM65 0v714h67v-714h-67z" />
    <glyph glyph-name="Ldot" unicode="&#x13f;" horiz-adv-x="406" 
d="M273 321v84h73v-84h-73zM68 0v700h70v-635h245v-65h-315z" />
    <glyph glyph-name="ldot" unicode="&#x140;" horiz-adv-x="258" 
d="M195 317v87h66v-87h-66zM65 0v714h67v-714h-67z" />
    <glyph glyph-name="Lslash" unicode="&#x141;" horiz-adv-x="424" 
d="M269 387l-116 -65v-257h245v-65h-316v282l-59 -33v71l59 33v347h71v-308l116 66v-71z" />
    <glyph glyph-name="lslash" unicode="&#x142;" horiz-adv-x="226" 
d="M209 387l-62 -38v-349h-67v308l-62 -37v70l62 37v336h67v-296l62 39v-70z" />
    <glyph glyph-name="Nacute" unicode="&#x143;" horiz-adv-x="553" 
d="M247 744l80 117l68 -32l-95 -85h-53zM68 0v700h68l281 -539v539h68v-700h-61l-288 553v-553h-68z" />
    <glyph glyph-name="nacute" unicode="&#x144;" horiz-adv-x="448" 
d="M197 582l78 135l66 -33l-96 -102h-48zM60 0v525h67v-79q43 88 128 88q64 0 101.5 -44.5t37.5 -125.5v-364h-67v343q0 131 -95 131q-46 0 -75.5 -36.5t-29.5 -95.5v-342h-67z" />
    <glyph glyph-name="Ncommaaccent" unicode="&#x145;" horiz-adv-x="553" 
d="M237 -208l-9 26q25 8 34.5 20.5t8.5 34.5h-32v72h72v-65q0 -38 -18 -58.5t-56 -29.5zM68 0v700h68l281 -539v539h68v-700h-61l-288 553v-553h-68z" />
    <glyph glyph-name="ncommaaccent" unicode="&#x146;" horiz-adv-x="448" 
d="M188 -209l-9 26q25 8 34.5 20.5t8.5 34.5h-32v72h72v-65q0 -38 -18 -58.5t-56 -29.5zM60 0v525h67v-79q43 88 128 88q64 0 101.5 -44.5t37.5 -125.5v-364h-67v343q0 131 -95 131q-46 0 -75.5 -36.5t-29.5 -95.5v-342h-67z" />
    <glyph glyph-name="Ncaron" unicode="&#x147;" horiz-adv-x="553" 
d="M392 855l-86 -109h-62l-86 109h60l58 -57l58 57h58zM68 0v700h68l281 -539v539h68v-700h-61l-288 553v-553h-68z" />
    <glyph glyph-name="ncaron" unicode="&#x148;" horiz-adv-x="448" 
d="M335 712l-81 -128h-56l-81 128h53l57 -70l57 70h51zM60 0v525h67v-79q43 88 128 88q64 0 101.5 -44.5t37.5 -125.5v-364h-67v343q0 131 -95 131q-46 0 -75.5 -36.5t-29.5 -95.5v-342h-67z" />
    <glyph glyph-name="Omacron" unicode="&#x14c;" horiz-adv-x="566" 
d="M157 766v55h250v-55h-250zM283 -10q-106 0 -171.5 95.5t-65.5 256.5v15q0 162 65.5 257.5t171.5 95.5t172 -95t66 -257v-15q0 -162 -66 -257.5t-172 -95.5zM283 56q72 0 119 77.5t47 210.5v12q0 133 -47 210.5t-119 77.5t-118.5 -77.5t-46.5 -210.5v-12
q0 -133 46.5 -210.5t118.5 -77.5z" />
    <glyph glyph-name="omacron" unicode="&#x14d;" horiz-adv-x="452" 
d="M112 595v53h230v-53h-230zM226 -10q-83 0 -136 74t-53 193v11q0 118 54 192t136 74t135 -74t53 -192v-11q0 -118 -53.5 -192.5t-135.5 -74.5zM227 51q52 0 86 58t34 149v8q0 91 -34.5 149t-86.5 58t-86.5 -57.5t-34.5 -149.5v-8q0 -91 35 -149t87 -58z" />
    <glyph glyph-name="Obreve" unicode="&#x14e;" horiz-adv-x="566" 
d="M282 752q-49 0 -81 25t-36 71h51q14 -43 66 -43t66 43h51q-4 -46 -36 -71t-81 -25zM283 -10q-106 0 -171.5 95.5t-65.5 256.5v15q0 162 65.5 257.5t171.5 95.5t172 -95t66 -257v-15q0 -162 -66 -257.5t-172 -95.5zM283 56q72 0 119 77.5t47 210.5v12q0 133 -47 210.5
t-119 77.5t-118.5 -77.5t-46.5 -210.5v-12q0 -133 46.5 -210.5t118.5 -77.5z" />
    <glyph glyph-name="obreve" unicode="&#x14f;" horiz-adv-x="452" 
d="M226 -10q-83 0 -136 74t-53 193v11q0 118 54 192t136 74t135 -74t53 -192v-11q0 -118 -53.5 -192.5t-135.5 -74.5zM227 51q52 0 86 58t34 149v8q0 91 -34.5 149t-86.5 58t-86.5 -57.5t-34.5 -149.5v-8q0 -91 35 -149t87 -58zM227 581q-48 0 -79.5 28t-35.5 81h49
q12 -56 66 -56t66 56h49q-4 -53 -35.5 -81t-79.5 -28z" />
    <glyph glyph-name="Ohungarumlaut" unicode="&#x150;" horiz-adv-x="566" 
d="M283 -10q-106 0 -171.5 95.5t-65.5 256.5v15q0 162 65.5 257.5t171.5 95.5t172 -95t66 -257v-15q0 -162 -66 -257.5t-172 -95.5zM283 56q72 0 119 77.5t47 210.5v12q0 133 -47 210.5t-119 77.5t-118.5 -77.5t-46.5 -210.5v-12q0 -133 46.5 -210.5t118.5 -77.5zM191 752
l80 117l64 -32l-93 -85h-51zM308 752l80 117l65 -32l-93 -85h-52z" />
    <glyph glyph-name="ohungarumlaut" unicode="&#x151;" horiz-adv-x="452" 
d="M251 582l77 135l61 -32l-91 -103h-47zM137 582l77 135l61 -32l-91 -103h-47zM226 -10q-83 0 -136 74t-53 193v11q0 118 54 192t136 74t135 -74t53 -192v-11q0 -118 -53.5 -192.5t-135.5 -74.5zM227 51q52 0 86 58t34 149v8q0 91 -34.5 149t-86.5 58t-86.5 -57.5
t-34.5 -149.5v-8q0 -91 35 -149t87 -58z" />
    <glyph glyph-name="OE" unicode="&#x152;" horiz-adv-x="762" 
d="M326 0q-127 0 -203.5 92t-76.5 251v14q0 159 76.5 251t203.5 92h393v-65h-261v-250h234v-64h-234v-256h265v-65h-397zM327 64h60v572h-61q-95 0 -152 -74t-57 -206v-12q0 -131 57.5 -205.5t152.5 -74.5z" />
    <glyph glyph-name="oe" unicode="&#x153;" horiz-adv-x="733" 
d="M225 -10q-80 0 -134 74.5t-54 192.5v11q0 118 54.5 192t134.5 74q51 0 90.5 -31.5t62.5 -88.5q22 57 60.5 88.5t86.5 31.5q78 0 125 -71.5t47 -193.5v-35h-284q4 -87 42.5 -135t94.5 -48q57 0 105 46l32 -51q-68 -56 -141 -56q-56 0 -100.5 33t-66.5 91
q-23 -58 -63.5 -91t-91.5 -33zM226 51q53 0 87 57.5t34 149.5v8q0 91 -34.5 149t-86.5 58q-53 0 -87 -57.5t-34 -149.5v-8q0 -91 34.5 -149t86.5 -58zM414 288h218q-2 82 -30.5 134t-76.5 52q-46 0 -76.5 -49.5t-34.5 -136.5z" />
    <glyph glyph-name="Racute" unicode="&#x154;" horiz-adv-x="506" 
d="M68 0v700h169q107 0 167 -60q55 -55 55 -150v-3q0 -77 -37 -127t-101 -71l156 -289h-80l-146 273q-9 -1 -27 -1h-86v-272h-70zM138 336h78q89 0 131.5 40t42.5 110v1q0 72 -42 110t-116 38h-94v-299zM211 747l80 117l68 -32l-95 -85h-53z" />
    <glyph glyph-name="racute" unicode="&#x155;" horiz-adv-x="289" 
d="M128 582l78 135l66 -33l-96 -102h-48zM60 0v525h67v-93q19 47 55.5 74.5t87.5 24.5v-74h-3q-62 0 -101 -41.5t-39 -119.5v-296h-67z" />
    <glyph glyph-name="Rcommaaccent" unicode="&#x156;" horiz-adv-x="506" 
d="M206 -208l-9 26q25 8 34.5 20.5t8.5 34.5h-32v72h72v-65q0 -38 -18 -58.5t-56 -29.5zM68 0v700h169q107 0 167 -60q55 -55 55 -150v-3q0 -77 -37 -127t-101 -71l156 -289h-80l-146 273q-9 -1 -27 -1h-86v-272h-70zM138 336h78q89 0 131.5 40t42.5 110v1q0 72 -42 110
t-116 38h-94v-299z" />
    <glyph glyph-name="rcommaaccent" unicode="&#x157;" horiz-adv-x="289" 
d="M60 -211l-9 26q25 8 34.5 20.5t8.5 34.5h-32v72h72v-65q0 -38 -18 -58.5t-56 -29.5zM60 0v525h67v-93q19 47 55.5 74.5t87.5 24.5v-74h-3q-62 0 -101 -41.5t-39 -119.5v-296h-67z" />
    <glyph glyph-name="Rcaron" unicode="&#x158;" horiz-adv-x="506" 
d="M359 858l-86 -109h-62l-86 109h60l58 -57l58 57h58zM68 0v700h169q107 0 167 -60q55 -55 55 -150v-3q0 -77 -37 -127t-101 -71l156 -289h-80l-146 273q-9 -1 -27 -1h-86v-272h-70zM138 336h78q89 0 131.5 40t42.5 110v1q0 72 -42 110t-116 38h-94v-299z" />
    <glyph glyph-name="rcaron" unicode="&#x159;" horiz-adv-x="289" 
d="M264 712l-81 -128h-56l-81 128h53l57 -70l57 70h51zM60 0v525h67v-93q19 47 55.5 74.5t87.5 24.5v-74h-3q-62 0 -101 -41.5t-39 -119.5v-296h-67z" />
    <glyph glyph-name="Sacute" unicode="&#x15a;" horiz-adv-x="442" 
d="M214 -9q-109 0 -196 84l44 56q77 -75 151 -75q54 0 87.5 33.5t33.5 82.5v2q0 40 -25.5 72.5t-98.5 75.5q-94 54 -129 100t-35 108v2q0 76 53 126.5t135 50.5q97 0 170 -70l-43 -55q-63 60 -130 60q-51 0 -82.5 -30.5t-31.5 -75.5v-1q0 -42 27 -74t106 -79
q91 -54 123 -100t32 -108v-2q0 -78 -54.5 -130.5t-136.5 -52.5zM198 752l80 117l68 -32l-95 -85h-53z" />
    <glyph glyph-name="sacute" unicode="&#x15b;" horiz-adv-x="348" 
d="M150 582l78 135l66 -33l-96 -102h-48zM167 -8q-84 0 -159 69l38 52q60 -61 122 -61q38 0 62 22.5t24 57.5v2q0 29 -21 53t-76 55q-66 37 -94.5 71t-28.5 83v2q0 60 41.5 97t105.5 37q76 0 139 -54l-36 -52q-49 46 -105 46q-36 0 -58 -19.5t-22 -49.5v-2q0 -28 21 -50.5
t75 -53.5q69 -40 96.5 -75.5t27.5 -84.5v-1q0 -65 -43.5 -104.5t-108.5 -39.5z" />
    <glyph glyph-name="Scedilla" unicode="&#x15e;" horiz-adv-x="442" 
d="M205 -127l-65 27l57 92q-98 5 -179 83l44 56q77 -75 151 -75q54 0 87.5 33.5t33.5 82.5v2q0 40 -25.5 72.5t-98.5 75.5q-94 54 -129 100t-35 108v2q0 76 53 126.5t135 50.5q97 0 170 -70l-43 -55q-63 60 -130 60q-51 0 -82.5 -30.5t-31.5 -75.5v-1q0 -42 27 -74t106 -79
q91 -54 123 -100t32 -108v-2q0 -68 -43 -118t-110 -61z" />
    <glyph glyph-name="scedilla" unicode="&#x15f;" horiz-adv-x="348" 
d="M152 -127l-65 27l58 93q-73 8 -137 68l38 52q60 -61 122 -61q38 0 62 22.5t24 57.5v2q0 29 -21 53t-76 55q-66 37 -94.5 71t-28.5 83v2q0 60 41.5 97t105.5 37q76 0 139 -54l-36 -52q-49 46 -105 46q-36 0 -58 -19.5t-22 -49.5v-2q0 -28 21 -50.5t75 -53.5
q69 -40 96.5 -75.5t27.5 -84.5v-1q0 -56 -33.5 -94t-85.5 -47z" />
    <glyph glyph-name="Scaron" unicode="&#x160;" horiz-adv-x="442" 
d="M214 -9q-109 0 -196 84l44 56q77 -75 151 -75q54 0 87.5 33.5t33.5 82.5v2q0 40 -25.5 72.5t-98.5 75.5q-94 54 -129 100t-35 108v2q0 76 53 126.5t135 50.5q97 0 170 -70l-43 -55q-63 60 -130 60q-51 0 -82.5 -30.5t-31.5 -75.5v-1q0 -42 27 -74t106 -79
q91 -54 123 -100t32 -108v-2q0 -78 -54.5 -130.5t-136.5 -52.5zM346 863l-86 -109h-62l-86 109h60l58 -57l58 57h58z" />
    <glyph glyph-name="scaron" unicode="&#x161;" horiz-adv-x="348" 
d="M286 712l-81 -128h-56l-81 128h53l57 -70l57 70h51zM167 -8q-84 0 -159 69l38 52q60 -61 122 -61q38 0 62 22.5t24 57.5v2q0 29 -21 53t-76 55q-66 37 -94.5 71t-28.5 83v2q0 60 41.5 97t105.5 37q76 0 139 -54l-36 -52q-49 46 -105 46q-36 0 -58 -19.5t-22 -49.5v-2
q0 -28 21 -50.5t75 -53.5q69 -40 96.5 -75.5t27.5 -84.5v-1q0 -65 -43.5 -104.5t-108.5 -39.5z" />
    <glyph glyph-name="Tcommaaccent" unicode="&#x162;" horiz-adv-x="426" 
d="M175 -211l-9 26q25 8 34.5 20.5t8.5 34.5h-32v72h72v-65q0 -38 -18 -58.5t-56 -29.5zM178 0v635h-152v65h375v-65h-153v-635h-70z" />
    <glyph glyph-name="tcommaaccent" unicode="&#x163;" horiz-adv-x="284" 
d="M123 -211l-9 26q25 8 34.5 20.5t8.5 34.5h-32v72h72v-65q0 -38 -18 -58.5t-56 -29.5zM190 -6q-112 0 -112 110v362h-53v59h53v148h68v-148h104v-59h-104v-349q0 -62 60 -62q22 0 45 10v-58q-28 -13 -61 -13z" />
    <glyph glyph-name="Tcaron" unicode="&#x164;" horiz-adv-x="426" 
d="M331 858l-86 -109h-62l-86 109h60l58 -57l58 57h58zM178 0v635h-152v65h375v-65h-153v-635h-70z" />
    <glyph glyph-name="tcaron" unicode="&#x165;" horiz-adv-x="284" 
d="M206 567l10 155h56v-3l-35 -152h-31zM190 -6q-112 0 -112 110v362h-53v59h53v148h68v-148h104v-59h-104v-349q0 -62 60 -62q22 0 45 10v-58q-28 -13 -61 -13z" />
    <glyph glyph-name="Umacron" unicode="&#x16a;" horiz-adv-x="535" 
d="M142 758v55h250v-55h-250zM267 -10q-93 0 -148.5 62t-55.5 173v475h69v-476q0 -81 36 -125t100 -44q63 0 99 43t36 124v478h70v-474q0 -112 -55.5 -174t-150.5 -62z" />
    <glyph glyph-name="umacron" unicode="&#x16b;" horiz-adv-x="448" 
d="M193 -9q-64 0 -101.5 44.5t-37.5 125.5v364h68v-343q0 -131 94 -131q46 0 75.5 36.5t29.5 96.5v341h67v-525h-67v79q-43 -88 -128 -88zM107 593v53h230v-53h-230z" />
    <glyph glyph-name="Ubreve" unicode="&#x16c;" horiz-adv-x="535" 
d="M267 742q-49 0 -81 25t-36 71h51q14 -43 66 -43t66 43h51q-4 -46 -36 -71t-81 -25zM267 -10q-93 0 -148.5 62t-55.5 173v475h69v-476q0 -81 36 -125t100 -44q63 0 99 43t36 124v478h70v-474q0 -112 -55.5 -174t-150.5 -62z" />
    <glyph glyph-name="ubreve" unicode="&#x16d;" horiz-adv-x="448" 
d="M193 -9q-64 0 -101.5 44.5t-37.5 125.5v364h68v-343q0 -131 94 -131q46 0 75.5 36.5t29.5 96.5v341h67v-525h-67v79q-43 -88 -128 -88zM222 579q-48 0 -79.5 28t-35.5 81h49q12 -56 66 -56t66 56h49q-4 -53 -35.5 -81t-79.5 -28z" />
    <glyph glyph-name="Uring" unicode="&#x16e;" horiz-adv-x="535" 
d="M267 -10q-93 0 -148.5 62t-55.5 173v475h69v-476q0 -81 36 -125t100 -44q63 0 99 43t36 124v478h70v-474q0 -112 -55.5 -174t-150.5 -62zM266 731q-38 0 -64.5 24.5t-26.5 60.5t27 60t66 24q38 0 64.5 -24t26.5 -60t-27 -60.5t-66 -24.5zM267 764q23 0 38 15t15 37
q0 21 -15 35.5t-38 14.5t-38 -14.5t-15 -35.5q0 -22 15 -37t38 -15z" />
    <glyph glyph-name="uring" unicode="&#x16f;" horiz-adv-x="448" 
d="M221 570q-37 0 -63 26t-26 63t26.5 62.5t64.5 25.5q37 0 63 -25.5t26 -62.5t-26.5 -63t-64.5 -26zM222 602q23 0 38.5 16.5t15.5 40.5q0 23 -15.5 39.5t-38.5 16.5t-38.5 -16.5t-15.5 -39.5q0 -24 15.5 -40.5t38.5 -16.5zM193 -9q-64 0 -101.5 44.5t-37.5 125.5v364h68
v-343q0 -131 94 -131q46 0 75.5 36.5t29.5 96.5v341h67v-525h-67v79q-43 -88 -128 -88z" />
    <glyph glyph-name="Uhungarumlaut" unicode="&#x170;" horiz-adv-x="535" 
d="M267 -10q-93 0 -148.5 62t-55.5 173v475h69v-476q0 -81 36 -125t100 -44q63 0 99 43t36 124v478h70v-474q0 -112 -55.5 -174t-150.5 -62zM175 744l80 117l64 -32l-93 -85h-51zM292 744l80 117l65 -32l-93 -85h-52z" />
    <glyph glyph-name="uhungarumlaut" unicode="&#x171;" horiz-adv-x="448" 
d="M193 -9q-64 0 -101.5 44.5t-37.5 125.5v364h68v-343q0 -131 94 -131q46 0 75.5 36.5t29.5 96.5v341h67v-525h-67v79q-43 -88 -128 -88zM246 580l77 135l61 -32l-91 -103h-47zM132 580l77 135l61 -32l-91 -103h-47z" />
    <glyph glyph-name="Uogonek" unicode="&#x172;" horiz-adv-x="535" 
d="M316 -95v-43q-10 -1 -21 -1q-44 0 -66 16.5t-22 45.5q0 31 32 69q-82 8 -129 69t-47 164v475h69v-476q0 -81 36 -125t100 -44q63 0 99 43t36 124v478h70v-474q0 -106 -49.5 -167t-134.5 -68q-24 -31 -24 -53q0 -32 51 -33z" />
    <glyph glyph-name="uogonek" unicode="&#x173;" horiz-adv-x="448" 
d="M193 -9q-64 0 -101.5 44.5t-37.5 125.5v364h68v-343q0 -131 94 -131q46 0 75.5 36.5t29.5 96.5v341h67v-525h-12q-31 -38 -31 -62q0 -32 51 -33v-43q-10 -1 -21 -1q-44 0 -66 16.5t-22 45.5q0 35 40 77h-6v79q-43 -88 -128 -88z" />
    <glyph glyph-name="Wcircumflex" unicode="&#x174;" horiz-adv-x="784" 
d="M195 -4l-164 704h73l126 -569l132 570h62l132 -570l126 569h72l-165 -704h-65l-132 561l-132 -561h-65zM274 749l86 109h62l86 -109h-60l-58 57l-58 -57h-58z" />
    <glyph glyph-name="wcircumflex" unicode="&#x175;" horiz-adv-x="632" 
d="M206 582l81 128h56l81 -128h-53l-57 70l-57 -70h-51zM159 -3l-128 528h70l91 -414l96 414h58l95 -414l93 414h67l-127 -528h-63l-95 404l-95 -404h-62z" />
    <glyph glyph-name="Ycircumflex" unicode="&#x176;" horiz-adv-x="486" 
d="M208 0v288l-195 412h77l154 -333l154 333h75l-195 -411v-289h-70zM127 746l86 109h62l86 -109h-60l-58 57l-58 -57h-58z" />
    <glyph glyph-name="ycircumflex" unicode="&#x177;" horiz-adv-x="424" 
d="M217 99l111 426h69l-147 -525q-23 -79 -53.5 -111t-78.5 -32q-41 0 -75 22l18 57q26 -17 52 -17q25 0 41 17t31 61l-159 528h70zM104 582l81 128h56l81 -128h-53l-57 70l-57 -70h-51z" />
    <glyph glyph-name="Ydieresis" unicode="&#x178;" horiz-adv-x="486" 
d="M208 0v288l-195 412h77l154 -333l154 333h75l-195 -411v-289h-70zM277 749v81h75v-81h-75zM135 749v81h76v-81h-76z" />
    <glyph glyph-name="Zacute" unicode="&#x179;" horiz-adv-x="464" 
d="M42 0v49l296 587h-285v64h371v-49l-297 -587h297v-64h-382zM207 747l80 117l68 -32l-95 -85h-53z" />
    <glyph glyph-name="zacute" unicode="&#x17a;" horiz-adv-x="372" 
d="M163 582l78 135l66 -33l-96 -102h-48zM32 0v44l229 423h-219v58h297v-44l-227 -423h225v-58h-305z" />
    <glyph glyph-name="Zdotaccent" unicode="&#x17b;" horiz-adv-x="464" 
d="M199 752v81h78v-81h-78zM42 0v49l296 587h-285v64h371v-49l-297 -587h297v-64h-382z" />
    <glyph glyph-name="zdotaccent" unicode="&#x17c;" horiz-adv-x="372" 
d="M32 0v44l229 423h-219v58h297v-44l-227 -423h225v-58h-305zM153 588v83h74v-83h-74z" />
    <glyph glyph-name="Zcaron" unicode="&#x17d;" horiz-adv-x="464" 
d="M355 858l-86 -109h-62l-86 109h60l58 -57l58 57h58zM42 0v49l296 587h-285v64h371v-49l-297 -587h297v-64h-382z" />
    <glyph glyph-name="zcaron" unicode="&#x17e;" horiz-adv-x="372" 
d="M299 712l-81 -128h-56l-81 128h53l57 -70l57 70h51zM32 0v44l229 423h-219v58h297v-44l-227 -423h225v-58h-305z" />
    <glyph glyph-name="florin" unicode="&#x192;" horiz-adv-x="393" 
d="M67 -5q-22 0 -46 6v61q17 -5 38 -5q54 0 62 72l31 249h-69v58h76l17 138q17 131 128 131q39 0 67 -10v-64q-27 11 -57 11q-60 0 -70 -80l-15 -126h111v-58h-118l-33 -257q-8 -65 -38 -95.5t-84 -30.5z" />
    <glyph glyph-name="Aringacute" unicode="&#x1fa;" horiz-adv-x="543" 
d="M28 0l196 666q-45 25 -45 73q0 36 27 60.5t66 24.5q38 0 64.5 -24.5t26.5 -60.5q0 -48 -44 -72l197 -667h-73l-53 183h-240l-53 -183h-69zM168 245h204l-101 355zM271 689q23 0 38 14t15 36t-15 36.5t-38 14.5t-38 -14.5t-15 -36.5t15 -36t38 -14zM242 848l81 99l66 -32
l-92 -67h-55z" />
    <glyph glyph-name="aringacute" unicode="&#x1fb;" horiz-adv-x="417" 
d="M180 787l78 110l63 -31l-90 -79h-51zM170 -10q-58 0 -98.5 45t-40.5 117v7q0 78 43 123t117 45q51 0 107 -20v45q0 57 -29 87t-81 30q-58 0 -107 -33l-22 57q69 38 137 38q78 0 123 -45q45 -43 45 -130v-356h-67v73q-41 -83 -127 -83zM187 47q47 -1 79 35t32 87v84
q-47 20 -96 20t-76.5 -30.5t-27.5 -81.5v-5q0 -49 24.5 -79t64.5 -30zM208 581q-38 0 -63.5 25.5t-25.5 63.5q0 37 26.5 62.5t64.5 25.5q37 0 63 -25.5t26 -62.5t-26.5 -63t-64.5 -26zM209 613q23 0 38.5 16.5t15.5 40.5q0 23 -15.5 39.5t-38.5 16.5t-38.5 -16.5
t-15.5 -39.5q0 -24 15.5 -40.5t38.5 -16.5z" />
    <glyph glyph-name="AEacute" unicode="&#x1fc;" horiz-adv-x="708" 
d="M380 747l80 117l68 -32l-95 -85h-53zM7 0l271 700h387v-65h-261v-250h234v-64h-234v-256h265v-65h-336v183h-185l-70 -183h-71zM172 245h161v390h-15z" />
    <glyph glyph-name="aeacute" unicode="&#x1fd;" horiz-adv-x="677" 
d="M174 -10q-62 0 -102.5 45.5t-40.5 118.5v5q0 78 43 123t116 45q49 0 105 -20v45q0 57 -28 87t-81 30t-105 -31l-22 59q70 34 133 34q112 0 144 -90q47 93 135 93q78 0 124.5 -71.5t46.5 -193.5v-35h-284q4 -87 42.5 -135t94.5 -48q57 0 105 46l32 -51q-70 -56 -142 -56
q-110 0 -162 112q-56 -112 -154 -112zM187 47q39 0 70 30t50 77q-10 47 -12 100q-50 19 -95 19q-49 0 -75.5 -30t-26.5 -81v-6q0 -49 24.5 -79t64.5 -30zM358 288h218q-2 82 -30.5 134t-76.5 52q-46 0 -76.5 -49.5t-34.5 -136.5zM308 582l78 135l66 -33l-96 -102h-48z" />
    <glyph glyph-name="Oslashacute" unicode="&#x1fe;" horiz-adv-x="566" 
d="M461 706h62l-61 -103q59 -96 59 -245v-15q0 -161 -66.5 -257t-172.5 -96q-82 0 -142 60l-34 -56h-63l61 103q-58 94 -58 245v15q0 161 66 257t171 96q82 0 143 -61zM116 345q0 -108 29 -180l247 421q-44 61 -110 61q-73 0 -119.5 -78t-46.5 -212v-12zM283 53
q74 0 121 77.5t47 212.5v12q0 105 -30 179l-246 -422q43 -59 108 -59zM254 752l80 117l68 -32l-95 -85h-53z" />
    <glyph glyph-name="oslashacute" unicode="&#x1ff;" horiz-adv-x="452" 
d="M362 530h58l-51 -81q46 -73 46 -181v-11q0 -118 -54 -192.5t-135 -74.5q-62 0 -110 45l-26 -41h-58l51 81q-46 73 -46 182v11q0 118 54.5 192t135.5 74q61 0 109 -45zM227 50q54 0 88.5 58t34.5 150v8q0 66 -20 121l-182 -295q32 -42 79 -42zM103 259q0 -70 19 -121
l183 294q-34 43 -79 43q-54 0 -88.5 -58.5t-34.5 -150.5v-7zM197 582l78 135l66 -33l-96 -102h-48z" />
    <glyph glyph-name="Scommaaccent" unicode="&#x218;" horiz-adv-x="442" 
d="M180 -211l-9 26q25 8 34.5 20.5t8.5 34.5h-32v72h72v-65q0 -38 -18 -58.5t-56 -29.5zM214 -9q-109 0 -196 84l44 56q77 -75 151 -75q54 0 87.5 33.5t33.5 82.5v2q0 40 -25.5 72.5t-98.5 75.5q-94 54 -129 100t-35 108v2q0 76 53 126.5t135 50.5q97 0 170 -70l-43 -55
q-63 60 -130 60q-51 0 -82.5 -30.5t-31.5 -75.5v-1q0 -42 27 -74t106 -79q91 -54 123 -100t32 -108v-2q0 -78 -54.5 -130.5t-136.5 -52.5z" />
    <glyph glyph-name="scommaaccent" unicode="&#x219;" horiz-adv-x="348" 
d="M134 -211l-9 26q25 8 34.5 20.5t8.5 34.5h-32v72h72v-65q0 -38 -18 -58.5t-56 -29.5zM167 -8q-84 0 -159 69l38 52q60 -61 122 -61q38 0 62 22.5t24 57.5v2q0 29 -21 53t-76 55q-66 37 -94.5 71t-28.5 83v2q0 60 41.5 97t105.5 37q76 0 139 -54l-36 -52q-49 46 -105 46
q-36 0 -58 -19.5t-22 -49.5v-2q0 -28 21 -50.5t75 -53.5q69 -40 96.5 -75.5t27.5 -84.5v-1q0 -65 -43.5 -104.5t-108.5 -39.5z" />
    <glyph glyph-name="schwa" unicode="&#x259;" horiz-adv-x="423" 
d="M186 534q87 0 143.5 -70.5t56.5 -193.5v-10q0 -124 -51 -197t-128 -73q-79 0 -125.5 71.5t-46.5 193.5v35h284q-4 86 -43 134.5t-96 48.5q-52 0 -103 -46l-32 51q64 56 141 56zM320 236h-219q2 -82 30 -134t76 -52q46 0 77.5 49.5t35.5 136.5z" />
    <glyph glyph-name="circumflex" unicode="&#x2c6;" horiz-adv-x="500" 
d="M141 584l81 128h56l81 -128h-53l-57 70l-57 -70h-51z" />
    <glyph glyph-name="caron" unicode="&#x2c7;" horiz-adv-x="500" 
d="M359 712l-81 -128h-56l-81 128h53l57 -70l57 70h51z" />
    <glyph glyph-name="breve" unicode="&#x2d8;" horiz-adv-x="500" 
d="M250 581q-48 0 -79.5 28t-35.5 81h49q12 -56 66 -56t66 56h49q-4 -53 -35.5 -81t-79.5 -28z" />
    <glyph glyph-name="dotaccent" unicode="&#x2d9;" horiz-adv-x="500" 
d="M213 588v83h74v-83h-74z" />
    <glyph glyph-name="ring" unicode="&#x2da;" horiz-adv-x="500" 
d="M249 581q-37 0 -63 25.5t-26 63.5q0 37 26.5 62.5t64.5 25.5q37 0 63 -25.5t26 -62.5t-26.5 -63t-64.5 -26zM250 613q23 0 38.5 16.5t15.5 40.5q0 23 -15.5 39.5t-38.5 16.5t-38.5 -16.5t-15.5 -39.5q0 -24 15.5 -40.5t38.5 -16.5z" />
    <glyph glyph-name="ogonek" unicode="&#x2db;" horiz-adv-x="500" 
d="M306 -95v-43q-10 -1 -21 -1q-44 0 -66 16.5t-22 45.5q0 37 49 86l45 -4q-36 -43 -36 -67q0 -32 51 -33z" />
    <glyph glyph-name="tilde" unicode="&#x2dc;" horiz-adv-x="500" 
d="M305 582q-25 0 -59 24q-31 21 -44 21q-12 0 -19.5 -10.5t-15.5 -35.5l-43 11q12 48 28.5 69.5t42.5 21.5q25 0 59 -24q29 -20 44 -20q12 0 19.5 10t15.5 35l43 -11q-12 -48 -28.5 -69.5t-42.5 -21.5z" />
    <glyph glyph-name="hungarumlaut" unicode="&#x2dd;" horiz-adv-x="500" 
d="M236 582l77 135l61 -32l-91 -103h-47zM122 582l77 135l61 -32l-91 -103h-47z" />
    <glyph glyph-name="commaaccent" unicode="&#x326;" horiz-adv-x="500" 
d="M214 -211l-9 26q25 8 34.5 20.5t8.5 34.5h-32v72h72v-65q0 -38 -18 -58.5t-56 -29.5z" />
    <glyph glyph-name="baht" unicode="&#xe3f;" horiz-adv-x="470" 
d="M254 781h51l-11 -93q57 -18 90 -60.5t33 -102.5v-3q0 -125 -123 -165q136 -38 136 -168v-2q0 -85 -58.5 -134.5t-157.5 -52.5l-15 -120h-53l16 120h-98v700h147q10 0 32 -2zM362 192q0 52 -29.5 85.5t-83.5 42.5l-31 -257q67 3 105.5 36t38.5 91v2zM132 382h70h5l30 253
q-16 2 -24 2h-81v-255zM132 63h40l30 261h-70v-261zM349 515q0 77 -66 108l-27 -234q93 25 93 125v1z" />
    <glyph glyph-name="Wgrave" unicode="&#x1e80;" horiz-adv-x="784" 
d="M419 747h-52l-95 85l67 32zM195 -4l-164 704h73l126 -569l132 570h62l132 -570l126 569h72l-165 -704h-65l-132 561l-132 -561h-65z" />
    <glyph glyph-name="wgrave" unicode="&#x1e81;" horiz-adv-x="632" 
d="M159 -3l-128 528h70l91 -414l96 414h58l95 -414l93 414h67l-127 -528h-63l-95 404l-95 -404h-62zM295 582l-96 102l66 33l78 -135h-48z" />
    <glyph glyph-name="Wacute" unicode="&#x1e82;" horiz-adv-x="784" 
d="M362 747l80 117l68 -32l-95 -85h-53zM195 -4l-164 704h73l126 -569l132 570h62l132 -570l126 569h72l-165 -704h-65l-132 561l-132 -561h-65z" />
    <glyph glyph-name="wacute" unicode="&#x1e83;" horiz-adv-x="632" 
d="M287 582l78 135l66 -33l-96 -102h-48zM159 -3l-128 528h70l91 -414l96 414h58l95 -414l93 414h67l-127 -528h-63l-95 404l-95 -404h-62z" />
    <glyph glyph-name="Wdieresis" unicode="&#x1e84;" horiz-adv-x="784" 
d="M424 752v81h75v-81h-75zM282 752v81h76v-81h-76zM195 -4l-164 704h73l126 -569l132 570h62l132 -570l126 569h72l-165 -704h-65l-132 561l-132 -561h-65z" />
    <glyph glyph-name="wdieresis" unicode="&#x1e85;" horiz-adv-x="632" 
d="M345 588v82h71v-82h-71zM214 588v82h71v-82h-71zM159 -3l-128 528h70l91 -414l96 414h58l95 -414l93 414h67l-127 -528h-63l-95 404l-95 -404h-62z" />
    <glyph glyph-name="Ygrave" unicode="&#x1ef2;" horiz-adv-x="486" 
d="M208 0v288l-195 412h77l154 -333l154 333h75l-195 -411v-289h-70zM272 744h-52l-95 85l67 32z" />
    <glyph glyph-name="ygrave" unicode="&#x1ef3;" horiz-adv-x="424" 
d="M217 99l111 426h69l-147 -525q-23 -79 -53.5 -111t-78.5 -32q-41 0 -75 22l18 57q26 -17 52 -17q25 0 41 17t31 61l-159 528h70zM193 580l-96 102l66 33l78 -135h-48z" />
    <glyph glyph-name="enspace" unicode="&#x2002;" horiz-adv-x="500" 
 />
    <glyph glyph-name="emspace" unicode="&#x2003;" horiz-adv-x="1000" 
 />
    <glyph glyph-name="threeperemspace" unicode="&#x2004;" horiz-adv-x="333" 
 />
    <glyph glyph-name="fourperemspace" unicode="&#x2005;" horiz-adv-x="250" 
 />
    <glyph glyph-name="figurespace" unicode="&#x2007;" horiz-adv-x="450" 
 />
    <glyph glyph-name="thinspace" unicode="&#x2009;" horiz-adv-x="118" 
 />
    <glyph glyph-name="hairspace" unicode="&#x200a;" horiz-adv-x="63" 
 />
    <glyph glyph-name="endash" unicode="&#x2013;" horiz-adv-x="455" 
d="M49 267v66h357v-66h-357z" />
    <glyph glyph-name="emdash" unicode="&#x2014;" horiz-adv-x="708" 
d="M49 267v66h611v-66h-611z" />
    <glyph glyph-name="quoteleft" unicode="&#x2018;" horiz-adv-x="197" 
d="M52 481v87q0 56 24 87.5t76 47.5l12 -33q-68 -24 -62 -87h36v-102h-86z" />
    <glyph glyph-name="quoteright" unicode="&#x2019;" horiz-adv-x="197" 
d="M45 480l-12 33q67 24 62 87h-37v100h87v-85q0 -57 -24 -88.5t-76 -46.5z" />
    <glyph glyph-name="quotesinglbase" unicode="&#x201a;" horiz-adv-x="201" 
d="M42 -120l-11 33q69 23 64 87h-37v100h87v-85q0 -57 -24 -88t-79 -47z" />
    <glyph glyph-name="quotedblleft" unicode="&#x201c;" horiz-adv-x="362" 
d="M218 481v87q0 57 23.5 88t76.5 47l12 -33q-69 -24 -63 -87h36v-102h-85zM52 481v87q0 56 24 87.5t76 47.5l12 -33q-68 -24 -62 -87h36v-102h-86z" />
    <glyph glyph-name="quotedblright" unicode="&#x201d;" horiz-adv-x="362" 
d="M210 480l-12 33q68 23 63 87h-37v100h86v-85q0 -57 -23.5 -88.5t-76.5 -46.5zM45 480l-12 33q67 24 62 87h-37v100h87v-85q0 -57 -24 -88.5t-76 -46.5z" />
    <glyph glyph-name="quotedblbase" unicode="&#x201e;" horiz-adv-x="368" 
d="M209 -120l-12 33q71 24 65 87h-36v100h85v-85q0 -57 -23.5 -88t-78.5 -47zM42 -120l-11 33q69 23 64 87h-37v100h87v-85q0 -57 -24 -88t-79 -47z" />
    <glyph glyph-name="dagger" unicode="&#x2020;" horiz-adv-x="296" 
d="M122 238l8 284l-97 -9v53l96 -9l-10 143h59l-11 -143l96 9v-53l-96 9l8 -284h-53z" />
    <glyph glyph-name="daggerdbl" unicode="&#x2021;" horiz-adv-x="317" 
d="M128 0l12 143l-96 -9v53l96 -9l-9 172l9 172l-96 -9v53l96 -9l-11 143h60l-11 -143l95 9v-53l-96 9l10 -172l-10 -172l96 9v-53l-95 9l10 -143h-60z" />
    <glyph glyph-name="bullet" unicode="&#x2022;" horiz-adv-x="378" 
d="M189 229q-45 0 -74.5 32.5t-29.5 86.5v10q0 55 29.5 87.5t74.5 32.5t74.5 -32.5t29.5 -87.5v-10q0 -54 -29.5 -86.5t-74.5 -32.5z" />
    <glyph glyph-name="ellipsis" unicode="&#x2026;" horiz-adv-x="606" 
d="M464 0v100h86v-100h-86zM260 0v100h86v-100h-86zM56 0v100h86v-100h-86z" />
    <glyph glyph-name="perthousand" unicode="&#x2030;" horiz-adv-x="928" 
d="M160 410q31 0 50 32t19 86v7q0 54 -19.5 86.5t-50.5 32.5q-30 0 -49 -32t-19 -86v-7q0 -54 19.5 -86.5t49.5 -32.5zM159 358q-54 0 -88.5 47t-34.5 122v9q0 76 35 123t89 47t89 -47t35 -122v-9q0 -76 -35 -123t-90 -47zM536 700l-201 -362l-185 -338h-55l200 361l186 339
h55zM471 46q30 0 49 32t19 86v7q0 54 -19.5 86.5t-49.5 32.5t-49 -32t-19 -86v-7q0 -54 19.5 -86.5t49.5 -32.5zM470 -6q-54 0 -88.5 47t-34.5 122v9q0 76 35 123t89 47t89 -47t35 -122v-9q0 -76 -35 -123t-90 -47zM769 46q31 0 50 32t19 86v7q0 54 -19.5 86.5t-50.5 32.5
q-30 0 -49 -32t-19 -86v-7q0 -54 19.5 -86.5t49.5 -32.5zM768 -6q-53 0 -88 47t-35 122v9q0 76 35 123t89 47t89.5 -47t35.5 -122v-9q0 -76 -35.5 -123t-90.5 -47z" />
    <glyph glyph-name="guilsinglleft" unicode="&#x2039;" horiz-adv-x="266" 
d="M177 43l-140 212v8l140 211l48 -26l-114 -188l115 -190z" />
    <glyph glyph-name="guilsinglright" unicode="&#x203a;" horiz-adv-x="266" 
d="M89 43l-48 26l114 189l-115 189l49 27l140 -211v-8z" />
    <glyph glyph-name="fraction" unicode="&#x2044;" horiz-adv-x="75" 
d="M-161 0l183 359l168 342h46l-182 -360l-169 -341h-46z" />
    <glyph glyph-name="zero.sup" unicode="&#x2070;" 
d="M151 444q-55 0 -84.5 47t-29.5 136v7q0 89 30 136.5t84 47.5t84 -47t30 -136v-7q0 -89 -30.5 -136.5t-83.5 -47.5zM151 773q-65 0 -65 -139v-6q0 -139 65 -139t65 138v6q0 140 -65 140z" />
    <glyph glyph-name="four.sup" unicode="&#x2074;" 
d="M233 526v-77h-45v77h-151l-4 39l143 249h57v-248h40v-40h-40zM189 566v186h-3l-106 -186h109z" />
    <glyph glyph-name="five.sup" unicode="&#x2075;" 
d="M141 444q-60 0 -104 41l25 38q39 -35 79 -35q33 0 51 21t18 54q0 34 -19 51t-50 17q-28 0 -58 -16l-31 16l13 180h177v-46h-136l-8 -102q26 11 52 11q47 0 78 -29t31 -81q0 -53 -32.5 -86.5t-85.5 -33.5z" />
    <glyph glyph-name="six.sup" unicode="&#x2076;" 
d="M152 444q-45 0 -72 27q-41 39 -41 138v10q0 98 35.5 148.5t94.5 50.5q43 0 80 -28l-22 -39q-28 22 -59 22q-36 0 -58 -32.5t-24 -95.5q25 37 75 37q43 0 71.5 -29.5t28.5 -85.5q0 -55 -31 -89t-78 -34zM152 487q29 0 46 21.5t17 57.5t-17 55t-46 19q-26 0 -44.5 -19.5
t-18.5 -54.5q0 -36 17 -57.5t46 -21.5z" />
    <glyph glyph-name="seven.sup" unicode="&#x2077;" 
d="M124 449h-52l134 316h-161v46h213v-37z" />
    <glyph glyph-name="eight.sup" unicode="&#x2078;" 
d="M151 444q-50 0 -81.5 28.5t-31.5 74.5q0 62 58 91q-49 26 -49 83q0 43 30 70t75 27q44 0 74 -27t30 -70q0 -57 -50 -83q59 -27 59 -90q0 -47 -31.5 -75.5t-82.5 -28.5zM151 777q-25 0 -41.5 -16.5t-16.5 -41.5q0 -27 16.5 -44.5t41.5 -17.5q26 0 42.5 17.5t16.5 44.5
q0 26 -16.5 42t-42.5 16zM151 616q-29 0 -47.5 -19t-18.5 -48t18 -47t48 -18t48.5 18t18.5 47t-19 48t-48 19z" />
    <glyph glyph-name="nine.sup" unicode="&#x2079;" 
d="M152 818q42 0 71 -27q40 -40 40 -139v-10q0 -98 -35 -148t-94 -50q-44 0 -85 29l21 39q36 -24 64 -24q36 0 58.5 32t24.5 93q-24 -38 -75 -38q-43 0 -72 30t-29 87q0 56 31.5 91t79.5 35zM150 617q27 0 45.5 20t18.5 57q0 38 -17 59.5t-46 21.5q-30 0 -46.5 -22
t-16.5 -60q0 -36 17 -56t45 -20z" />
    <glyph glyph-name="zero.inf" unicode="&#x2080;" 
d="M151 -138q-55 0 -84.5 47t-29.5 136v7q0 89 30 136.5t84 47.5t84 -47t30 -136v-7q0 -89 -30.5 -136.5t-83.5 -47.5zM151 191q-65 0 -65 -139v-6q0 -139 65 -139t65 138v6q0 140 -65 140z" />
    <glyph glyph-name="one.inf" unicode="&#x2081;" horiz-adv-x="244" 
d="M162 -132h-49v311l-71 -34l-5 47l85 40h40v-364z" />
    <glyph glyph-name="two.inf" unicode="&#x2082;" 
d="M40 -132v37l118 140q26 32 37 51.5t11 39.5q0 25 -16.5 39.5t-39.5 14.5q-7 0 -14 -1.5t-12 -3t-11.5 -5t-10 -5.5t-9.5 -7.5t-8 -7.5t-8.5 -8t-7.5 -7l-28 32q51 59 112 59q45 0 74 -26.5t29 -69.5q0 -31 -12.5 -54.5t-43.5 -60.5l-96 -111h155v-46h-219z" />
    <glyph glyph-name="three.inf" unicode="&#x2083;" 
d="M140 -138q-60 0 -108 44l26 36q38 -36 83 -36q28 0 47.5 17.5t19.5 48.5q0 64 -97 66h-12l-4 31l98 116h-146v45h206v-37l-100 -118q104 -16 104 -103q0 -49 -33.5 -79.5t-83.5 -30.5z" />
    <glyph glyph-name="four.inf" unicode="&#x2084;" 
d="M233 -56v-77h-45v77h-151l-4 39l143 249h57v-248h40v-40h-40zM189 -16v186h-3l-106 -186h109z" />
    <glyph glyph-name="five.inf" unicode="&#x2085;" 
d="M141 -138q-60 0 -104 41l25 38q38 -35 79 -35q33 0 51 21t18 54q0 34 -19 51t-50 17q-28 0 -58 -16l-31 16l13 180h177v-46h-136l-8 -102q26 11 52 11q47 0 78 -29t31 -81q0 -53 -32.5 -86.5t-85.5 -33.5z" />
    <glyph glyph-name="six.inf" unicode="&#x2086;" 
d="M152 -138q-45 0 -72 27q-41 39 -41 138v10q0 98 35.5 148.5t94.5 50.5q43 0 80 -28l-22 -39q-28 22 -59 22q-36 0 -58 -32.5t-24 -95.5q25 37 75 37q43 0 71.5 -29.5t28.5 -85.5q0 -55 -31 -89t-78 -34zM152 -95q29 0 46 21.5t17 57.5t-17 55t-46 19q-26 0 -44.5 -19.5
t-18.5 -54.5q0 -36 17 -57.5t46 -21.5z" />
    <glyph glyph-name="seven.inf" unicode="&#x2087;" 
d="M124 -133h-52l134 316h-161v46h213v-37z" />
    <glyph glyph-name="eight.inf" unicode="&#x2088;" 
d="M151 -138q-50 0 -81.5 28.5t-31.5 74.5q0 62 58 91q-49 26 -49 83q0 43 30 70t75 27q44 0 74 -27t30 -70q0 -57 -50 -83q59 -27 59 -90q0 -47 -31.5 -75.5t-82.5 -28.5zM151 195q-25 0 -41.5 -16.5t-16.5 -41.5q0 -27 16.5 -44.5t41.5 -17.5q26 0 42.5 17.5t16.5 44.5
q0 26 -16.5 42t-42.5 16zM151 34q-29 0 -47.5 -19t-18.5 -48t18 -47t48 -18t48.5 18t18.5 47t-19 48t-48 19z" />
    <glyph glyph-name="nine.inf" unicode="&#x2089;" 
d="M152 236q42 0 71 -27q40 -40 40 -139v-10q0 -98 -35 -148t-94 -50q-44 0 -85 29l21 39q36 -24 64 -24q36 0 58.5 32t24.5 93q-24 -38 -75 -38q-43 0 -72 30t-29 87q0 56 31.5 91t79.5 35zM150 35q27 0 45.5 20t18.5 57q0 38 -17 59.5t-46 21.5q-30 0 -46.5 -22t-16.5 -60
q0 -36 17 -56t45 -20z" />
    <glyph glyph-name="colonmonetary" unicode="&#x20a1;" horiz-adv-x="442" 
d="M350 779h41l-12 -98q18 -10 48 -33l-37 -53l-23 18l-69 -553q42 3 92 44l34 -50q-63 -54 -131 -58l-14 -114h-42l15 116q-38 5 -65 20l-17 -136h-41l20 162q-103 90 -103 298v16q0 141 51 228.5t134 110.5l10 82h42l-10 -75h12q32 0 54 -7zM194 94q31 -27 70 -33l70 570
q-25 9 -48 9q-8 0 -24 -2zM114 342q0 -136 50 -212l60 496q-51 -26 -80.5 -95t-29.5 -174v-15z" />
    <glyph glyph-name="naira" unicode="&#x20a6;" horiz-adv-x="612" 
d="M587 228h-82v-228h-82l-97 230h-152v-230h-67v228h-82v54h82v140h-82v54h82v224h87l96 -226h148v226h67v-224h82v-54h-82v-140h82v-54zM173 586v-304h131l-130 304h-1zM311 422l127 -296v296h-127z" />
    <glyph glyph-name="rupee" unicode="&#x20a8;" horiz-adv-x="778" 
d="M56 0v700h137q96 0 152.5 -56t56.5 -156v-3q0 -75 -33 -125.5t-90 -73.5l139 -286h-76l-129 269h-90v-269h-67zM606 -8q-88 0 -154 63l36 52q58 -56 118 -56q37 0 58.5 22t21.5 57v2q0 29 -20.5 52t-72.5 56q-65 41 -92.5 75.5t-27.5 81.5v2q0 58 39 95.5t102 37.5
q76 0 135 -47l-35 -53q-51 42 -101 42q-35 0 -56 -20.5t-21 -51.5v-1q0 -28 20.5 -51t73.5 -56q66 -43 93 -78t27 -82v-2q0 -63 -40 -101.5t-104 -38.5zM123 328h72q64 0 102.5 41.5t38.5 114.5v2q0 75 -39.5 113.5t-107.5 38.5h-66v-310z" />
    <glyph glyph-name="won" unicode="&#x20a9;" horiz-adv-x="803" 
d="M737 700l-42 -225h91v-54h-101l-26 -138h127v-55h-137l-43 -231h-80l-48 231h-154l-48 -231h-80l-43 231h-136v54h126l-26 139h-100v54h90l-41 225h73l37 -225h141l46 226h80l46 -226h139l38 225h71zM401 597l-66 -315h132l-63 315h-3zM238 97h3l65 325h-122zM565 97h3
l52 325h-120z" />
    <glyph glyph-name="sheqel" unicode="&#x20aa;" horiz-adv-x="487" 
d="M181 139l-23 203h47l22 -179q6 -53 25 -77t59 -24h67v455h57v-517h-128q-58 0 -88.5 33.5t-37.5 105.5zM271 353q0 54 -19 78t-60 24h-83v-455h-57v517h149q118 0 118 -143v-191h-48v170z" />
    <glyph glyph-name="Euro" unicode="&#x20ac;" horiz-adv-x="490" 
d="M460 639l-42 -48q-46 51 -101 51t-93.5 -48.5t-52.5 -130.5h184v-54h-191q-2 -18 -2 -54v-11q0 -32 1 -47h192v-54h-185q15 -88 54 -136.5t93 -48.5q59 0 102 56l43 -47q-64 -75 -147 -75q-85 0 -142 67t-75 184h-70v54h64q-1 14 -1 45v14q0 36 2 53h-65v54h72
q19 111 76 178t141 67q79 0 143 -69z" />
    <glyph glyph-name="peso" unicode="&#x20b1;" horiz-adv-x="529" 
d="M96 0v445h-81v53h81v202h129q97 0 157.5 -54t67.5 -148h82v-53h-82q-8 -95 -71 -149.5t-160 -55.5h-53v-240h-70zM221 302q69 0 110.5 38.5t48.5 105.5h-214v-144h55zM166 637v-140h214q-7 67 -48.5 103.5t-109.5 36.5h-56z" />
    <glyph glyph-name="published" unicode="&#x2117;" horiz-adv-x="632" 
d="M316 -11q-123 0 -202.5 100.5t-79.5 248.5v24q0 148 80 248.5t202 100.5q123 0 202 -100t79 -249v-23q0 -148 -79.5 -249t-201.5 -101zM316 18q111 0 181 92.5t70 228.5v23q0 136 -70 228t-181 92t-181 -92t-70 -228v-24q0 -136 70 -228t181 -92zM228 167v380h88
q56 0 90.5 -32.5t34.5 -89.5v-2q0 -59 -35.5 -92t-91.5 -35h-39v-129h-47zM275 341h40q36 0 57 21t21 59v2q0 39 -21 59t-57 20h-40v-161z" />
    <glyph glyph-name="servicemark" unicode="&#x2120;" horiz-adv-x="523" 
d="M256 387v313h47l67 -150l68 150h46v-313h-40v239l-72 -163h-4l-72 163v-239h-40zM115 383q-48 0 -92 38l22 33q38 -33 71 -33q20 0 33 11.5t13 29.5t-10.5 31t-41.5 33q-42 27 -59 47.5t-17 49.5q0 36 25 58.5t64 22.5q44 0 82 -31l-21 -34q-32 27 -63 27q-20 0 -32 -11
t-12 -30q0 -15 11 -27t42 -33q40 -26 57 -48.5t17 -51.5q0 -37 -25.5 -59.5t-63.5 -22.5z" />
    <glyph glyph-name="trademark" unicode="&#x2122;" horiz-adv-x="503" 
d="M236 387v313h47l67 -150l68 150h46v-313h-40v239l-72 -163h-4l-72 163v-239h-40zM79 387v274h-65v39h172v-39h-65v-274h-42z" />
    <glyph glyph-name="onethird" unicode="&#x2153;" horiz-adv-x="620" 
d="M465 -6q-60 0 -108 44l26 36q38 -36 83 -36q28 0 47.5 17.5t19.5 48.5q0 64 -97 66h-12l-4 31l98 116h-146v45h206v-37l-100 -118q104 -16 104 -103q0 -49 -33.5 -79.5t-83.5 -30.5zM164 339h-49v310l-71 -33l-5 46l85 41h40v-364zM78 0l183 359l168 342h46l-182 -360
l-169 -341h-46z" />
    <glyph glyph-name="twothirds" unicode="&#x2154;" horiz-adv-x="675" 
d="M525 -6q-60 0 -108 44l26 36q38 -36 83 -36q28 0 47.5 17.5t19.5 48.5q0 64 -97 66h-12l-4 31l98 116h-146v45h206v-37l-100 -118q104 -16 104 -103q0 -49 -33.5 -79.5t-83.5 -30.5zM37 339v37l118 140q26 31 37 50.5t11 40.5q0 25 -16 39t-40 14q-18 0 -34.5 -8.5
t-24 -15t-22.5 -21.5l-28 33q52 58 112 58q45 0 74 -26.5t29 -68.5q0 -31 -12.5 -54.5t-43.5 -61.5l-96 -111h155v-45h-219zM141 0l183 359l168 342h46l-182 -360l-169 -341h-46z" />
    <glyph glyph-name="onefifth" unicode="&#x2155;" horiz-adv-x="620" 
d="M460 -6q-60 0 -104 41l25 38q39 -35 79 -35q33 0 51 21t18 54q0 34 -19 51t-50 17q-28 0 -58 -16l-31 16l13 180h177v-46h-136l-8 -102q26 11 52 11q47 0 78 -29t31 -81q0 -53 -32.5 -86.5t-85.5 -33.5zM164 339h-49v310l-71 -33l-5 46l85 41h40v-364zM80 0l183 359
l168 342h46l-182 -360l-169 -341h-46z" />
    <glyph glyph-name="twofifths" unicode="&#x2156;" horiz-adv-x="675" 
d="M527 -6q-60 0 -104 41l25 38q38 -35 79 -35q33 0 51 21t18 54q0 34 -19 51t-50 17q-28 0 -58 -16l-31 16l13 180h177v-46h-136l-8 -102q26 11 52 11q47 0 78 -29t31 -81q0 -53 -32.5 -86.5t-85.5 -33.5zM147 0l183 359l168 342h46l-182 -360l-169 -341h-46zM37 339v37
l118 140q26 31 37 50.5t11 40.5q0 25 -16 39t-40 14q-18 0 -34.5 -8.5t-24 -15t-22.5 -21.5l-28 33q52 58 112 58q45 0 74 -26.5t29 -68.5q0 -31 -12.5 -54.5t-43.5 -61.5l-96 -111h155v-45h-219z" />
    <glyph glyph-name="threefifths" unicode="&#x2157;" horiz-adv-x="675" 
d="M527 -6q-60 0 -104 41l25 38q38 -35 79 -35q33 0 51 21t18 54q0 34 -19 51t-50 17q-28 0 -58 -16l-31 16l13 180h177v-46h-136l-8 -102q26 11 52 11q47 0 78 -29t31 -81q0 -53 -32.5 -86.5t-85.5 -33.5zM137 0l183 359l168 342h46l-182 -360l-169 -341h-46zM135 332
q-59 0 -108 45l26 35q40 -36 83 -36q28 0 47.5 18t19.5 48q0 64 -97 66h-12l-4 31l98 116h-146v46h206v-37l-100 -118q104 -18 104 -104q0 -49 -33.5 -79.5t-83.5 -30.5z" />
    <glyph glyph-name="fourfifths" unicode="&#x2158;" horiz-adv-x="675" 
d="M227 414v-76h-45v76h-151l-4 40l143 249h57v-248h40v-41h-40zM183 455v186h-3l-106 -186h109zM527 -6q-60 0 -104 41l25 38q38 -35 79 -35q33 0 51 21t18 54q0 34 -19 51t-50 17q-28 0 -58 -16l-31 16l13 180h177v-46h-136l-8 -102q26 11 52 11q47 0 78 -29t31 -81
q0 -53 -32.5 -86.5t-85.5 -33.5zM143 0l183 359l168 342h46l-182 -360l-169 -341h-46z" />
    <glyph glyph-name="onesixth" unicode="&#x2159;" horiz-adv-x="620" 
d="M465 -6q-45 0 -72 27q-41 39 -41 138v10q0 98 35.5 148.5t94.5 50.5q43 0 80 -28l-22 -39q-28 22 -59 22q-36 0 -58 -32.5t-24 -95.5q25 37 75 37q43 0 71.5 -29.5t28.5 -85.5q0 -55 -31 -89t-78 -34zM86 0l183 359l168 342h46l-182 -360l-169 -341h-46zM164 339h-49v310
l-71 -33l-5 46l85 41h40v-364zM465 37q29 0 46 21.5t17 57.5t-17 55t-46 19q-26 0 -44.5 -19.5t-18.5 -54.5q0 -36 17 -57.5t46 -21.5z" />
    <glyph glyph-name="fivesixths" unicode="&#x215a;" horiz-adv-x="675" 
d="M531 -6q-45 0 -72 27q-41 39 -41 138v10q0 98 35.5 148.5t94.5 50.5q43 0 80 -28l-22 -39q-28 22 -59 22q-36 0 -58 -32.5t-24 -95.5q25 37 75 37q43 0 71.5 -29.5t28.5 -85.5q0 -55 -31 -89t-78 -34zM139 332q-59 0 -104 42l25 38q38 -36 79 -36q33 0 51 21.5t18 54.5
t-19 50t-50 17q-30 0 -58 -15l-31 16l13 180h177v-46h-136l-8 -102q28 10 52 10q48 0 78.5 -28.5t30.5 -80.5q0 -54 -32.5 -87.5t-85.5 -33.5zM139 0l183 359l168 342h46l-182 -360l-169 -341h-46zM531 37q29 0 46 21.5t17 57.5t-17 55t-46 19q-26 0 -44.5 -19.5
t-18.5 -54.5q0 -36 17 -57.5t46 -21.5z" />
    <glyph glyph-name="oneeighth" unicode="&#x215b;" horiz-adv-x="620" 
d="M465 -6q-50 0 -81.5 28.5t-31.5 74.5q0 62 58 91q-49 26 -49 83q0 43 30 70t75 27q44 0 74 -27t30 -70q0 -57 -50 -83q59 -27 59 -90q0 -47 -31.5 -75.5t-82.5 -28.5zM465 327q-25 0 -41.5 -16.5t-16.5 -41.5q0 -27 16.5 -44.5t41.5 -17.5q26 0 42.5 17.5t16.5 44.5
q0 26 -16.5 42t-42.5 16zM465 166q-29 0 -47.5 -19t-18.5 -48t18 -47t48 -18t48.5 18t18.5 47t-19 48t-48 19zM164 339h-49v310l-71 -33l-5 46l85 41h40v-364zM84 0l183 359l168 342h46l-182 -360l-169 -341h-46z" />
    <glyph glyph-name="threeeighths" unicode="&#x215c;" horiz-adv-x="675" 
d="M531 -6q-50 0 -81.5 28.5t-31.5 74.5q0 62 58 91q-49 26 -49 83q0 43 30 70t75 27q44 0 74 -27t30 -70q0 -57 -50 -83q59 -27 59 -90q0 -47 -31.5 -75.5t-82.5 -28.5zM531 327q-25 0 -41.5 -16.5t-16.5 -41.5q0 -27 16.5 -44.5t41.5 -17.5q26 0 42.5 17.5t16.5 44.5
q0 26 -16.5 42t-42.5 16zM531 166q-29 0 -47.5 -19t-18.5 -48t18 -47t48 -18t48.5 18t18.5 47t-19 48t-48 19zM139 0l183 359l168 342h46l-182 -360l-169 -341h-46zM138 332q-59 0 -108 45l26 35q40 -36 83 -36q28 0 47.5 18t19.5 48q0 64 -97 66h-12l-4 31l98 116h-146v46
h206v-37l-100 -118q104 -18 104 -104q0 -49 -33.5 -79.5t-83.5 -30.5z" />
    <glyph glyph-name="fiveeighths" unicode="&#x215d;" horiz-adv-x="675" 
d="M531 -6q-50 0 -81.5 28.5t-31.5 74.5q0 62 58 91q-49 26 -49 83q0 43 30 70t75 27q44 0 74 -27t30 -70q0 -57 -50 -83q59 -27 59 -90q0 -47 -31.5 -75.5t-82.5 -28.5zM531 327q-25 0 -41.5 -16.5t-16.5 -41.5q0 -27 16.5 -44.5t41.5 -17.5q26 0 42.5 17.5t16.5 44.5
q0 26 -16.5 42t-42.5 16zM531 166q-29 0 -47.5 -19t-18.5 -48t18 -47t48 -18t48.5 18t18.5 47t-19 48t-48 19zM139 0l183 359l168 342h46l-182 -360l-169 -341h-46zM139 332q-59 0 -104 42l25 38q38 -36 79 -36q33 0 51 21.5t18 54.5t-19 50t-50 17q-30 0 -58 -15l-31 16
l13 180h177v-46h-136l-8 -102q28 10 52 10q48 0 78.5 -28.5t30.5 -80.5q0 -54 -32.5 -87.5t-85.5 -33.5z" />
    <glyph glyph-name="seveneighths" unicode="&#x215e;" horiz-adv-x="675" 
d="M518 -6q-50 0 -81.5 28.5t-31.5 74.5q0 62 58 91q-49 26 -49 83q0 43 30 70t75 27q44 0 74 -27t30 -70q0 -57 -50 -83q59 -27 59 -90q0 -47 -31.5 -75.5t-82.5 -28.5zM518 327q-26 0 -42 -16.5t-16 -41.5q0 -27 16.5 -44.5t41.5 -17.5q26 0 42.5 17.5t16.5 44.5
q0 26 -16.5 42t-42.5 16zM518 166q-29 0 -47.5 -19t-18.5 -48t18 -47t48 -18t48.5 18t18.5 47t-19 48t-48 19zM128 338h-52l134 315h-161v47h213v-37zM105 0l183 359l168 342h46l-182 -360l-169 -341h-46z" />
    <glyph glyph-name="minus" unicode="&#x2212;" horiz-adv-x="448" 
d="M406 318h-364v68h364v-68z" />
    <glyph glyph-name="Q.alt" horiz-adv-x="566" 
d="M459 -95l-90 105q-40 -20 -86 -20q-106 0 -171.5 95.5t-65.5 256.5v15q0 162 65.5 257.5t171.5 95.5t172 -95t66 -257v-15q0 -196 -95 -293l120 -144v-1h-87zM283 56q72 0 119 77.5t47 210.5v12q0 133 -47 210.5t-119 77.5t-118.5 -77.5t-46.5 -210.5v-12
q0 -133 46.5 -210.5t118.5 -77.5z" />
    <glyph glyph-name="a.alt" horiz-adv-x="466" 
d="M203 -9q-69 0 -116.5 68t-47.5 194v19q0 125 47.5 193.5t116.5 68.5q87 0 136 -103v94h68v-525h-68v96q-49 -105 -136 -105zM218 52q52 0 88 55.5t36 146.5v18q0 91 -36 146t-88 55q-48 0 -79.5 -53.5t-31.5 -149.5v-14q0 -96 31.5 -150t79.5 -54z" />
    <glyph glyph-name="aacute.alt" horiz-adv-x="466" 
d="M209 582l78 135l66 -33l-96 -102h-48zM203 -9q-69 0 -116.5 68t-47.5 194v19q0 125 47.5 193.5t116.5 68.5q87 0 136 -103v94h68v-525h-68v96q-49 -105 -136 -105zM218 52q52 0 88 55.5t36 146.5v18q0 91 -36 146t-88 55q-48 0 -79.5 -53.5t-31.5 -149.5v-14
q0 -96 31.5 -150t79.5 -54z" />
    <glyph glyph-name="abreve.alt" horiz-adv-x="466" 
d="M203 -9q-69 0 -116.5 68t-47.5 194v19q0 125 47.5 193.5t116.5 68.5q87 0 136 -103v94h68v-525h-68v96q-49 -105 -136 -105zM218 52q52 0 88 55.5t36 146.5v18q0 91 -36 146t-88 55q-48 0 -79.5 -53.5t-31.5 -149.5v-14q0 -96 31.5 -150t79.5 -54zM239 581
q-48 0 -79.5 28t-35.5 81h49q12 -56 66 -56t66 56h49q-4 -53 -35.5 -81t-79.5 -28z" />
    <glyph glyph-name="acircumflex.alt" horiz-adv-x="466" 
d="M130 584l81 128h56l81 -128h-53l-57 70l-57 -70h-51zM203 -9q-69 0 -116.5 68t-47.5 194v19q0 125 47.5 193.5t116.5 68.5q87 0 136 -103v94h68v-525h-68v96q-49 -105 -136 -105zM218 52q52 0 88 55.5t36 146.5v18q0 91 -36 146t-88 55q-48 0 -79.5 -53.5t-31.5 -149.5
v-14q0 -96 31.5 -150t79.5 -54z" />
    <glyph glyph-name="adieresis.alt" horiz-adv-x="466" 
d="M269 588v82h71v-82h-71zM138 588v82h71v-82h-71zM203 -9q-69 0 -116.5 68t-47.5 194v19q0 125 47.5 193.5t116.5 68.5q87 0 136 -103v94h68v-525h-68v96q-49 -105 -136 -105zM218 52q52 0 88 55.5t36 146.5v18q0 91 -36 146t-88 55q-48 0 -79.5 -53.5t-31.5 -149.5v-14
q0 -96 31.5 -150t79.5 -54z" />
    <glyph glyph-name="agrave.alt" horiz-adv-x="466" 
d="M203 -9q-69 0 -116.5 68t-47.5 194v19q0 125 47.5 193.5t116.5 68.5q87 0 136 -103v94h68v-525h-68v96q-49 -105 -136 -105zM218 52q52 0 88 55.5t36 146.5v18q0 91 -36 146t-88 55q-48 0 -79.5 -53.5t-31.5 -149.5v-14q0 -96 31.5 -150t79.5 -54zM219 582l-96 102l66 33
l78 -135h-48z" />
    <glyph glyph-name="amacron.alt" horiz-adv-x="466" 
d="M203 -9q-69 0 -116.5 68t-47.5 194v19q0 125 47.5 193.5t116.5 68.5q87 0 136 -103v94h68v-525h-68v96q-49 -105 -136 -105zM218 52q52 0 88 55.5t36 146.5v18q0 91 -36 146t-88 55q-48 0 -79.5 -53.5t-31.5 -149.5v-14q0 -96 31.5 -150t79.5 -54zM124 595v53h230v-53
h-230z" />
    <glyph glyph-name="aogonek.alt" horiz-adv-x="466" 
d="M414 -95v-43q-10 -1 -21 -1q-44 0 -66 16.5t-22 45.5q0 35 40 77h-6v96q-49 -105 -136 -105q-69 0 -116.5 68t-47.5 194v19q0 125 47.5 193.5t116.5 68.5q87 0 136 -103v94h68v-525h-13q-31 -38 -31 -62q0 -32 51 -33zM218 52q52 0 88 55.5t36 146.5v18q0 91 -36 146
t-88 55q-48 0 -79.5 -53.5t-31.5 -149.5v-14q0 -96 31.5 -150t79.5 -54z" />
    <glyph glyph-name="aring.alt" horiz-adv-x="466" 
d="M238 581q-38 0 -63.5 25.5t-25.5 63.5q0 37 26.5 62.5t64.5 25.5q37 0 63 -25.5t26 -62.5t-26.5 -63t-64.5 -26zM239 613q23 0 38.5 16.5t15.5 40.5q0 23 -15.5 39.5t-38.5 16.5t-38.5 -16.5t-15.5 -39.5q0 -24 15.5 -40.5t38.5 -16.5zM203 -9q-69 0 -116.5 68t-47.5 194
v19q0 125 47.5 193.5t116.5 68.5q87 0 136 -103v94h68v-525h-68v96q-49 -105 -136 -105zM218 52q52 0 88 55.5t36 146.5v18q0 91 -36 146t-88 55q-48 0 -79.5 -53.5t-31.5 -149.5v-14q0 -96 31.5 -150t79.5 -54z" />
    <glyph glyph-name="aring.alt2" horiz-adv-x="417" 
d="M170 -10q-58 0 -98.5 45t-40.5 117v7q0 78 43 123t117 45q51 0 107 -20v45q0 57 -29 87t-81 30q-58 0 -107 -33l-22 57q47 24 85 33q-26 24 -26 62q0 37 26.5 63t63.5 26q38 0 63.5 -25.5t25.5 -63.5q0 -42 -32 -68q30 -10 54 -34q45 -43 45 -130v-356h-67v73
q-41 -83 -127 -83zM187 47q47 -1 79 35t32 87v84q-47 20 -96 20t-76.5 -30.5t-27.5 -81.5v-5q0 -49 24.5 -79t64.5 -30zM208 532q23 0 38 16t15 40q0 23 -15.5 39.5t-37.5 16.5q-23 0 -38.5 -16.5t-15.5 -39.5q0 -24 15.5 -40t38.5 -16z" />
    <glyph glyph-name="aringacute.alt" horiz-adv-x="466" 
d="M210 787l78 110l63 -31l-90 -79h-51zM238 581q-38 0 -63.5 25.5t-25.5 63.5q0 37 26.5 62.5t64.5 25.5q37 0 63 -25.5t26 -62.5t-26.5 -63t-64.5 -26zM239 613q23 0 38.5 16.5t15.5 40.5q0 23 -15.5 39.5t-38.5 16.5t-38.5 -16.5t-15.5 -39.5q0 -24 15.5 -40.5
t38.5 -16.5zM203 -9q-69 0 -116.5 68t-47.5 194v19q0 125 47.5 193.5t116.5 68.5q87 0 136 -103v94h68v-525h-68v96q-49 -105 -136 -105zM218 52q52 0 88 55.5t36 146.5v18q0 91 -36 146t-88 55q-48 0 -79.5 -53.5t-31.5 -149.5v-14q0 -96 31.5 -150t79.5 -54z" />
    <glyph glyph-name="aringacute.alt2" horiz-adv-x="417" 
d="M180 701l78 110l63 -31l-90 -79h-51zM170 -10q-58 0 -98.5 45t-40.5 117v7q0 78 43 123t117 45q51 0 107 -20v45q0 57 -29 87t-81 30q-58 0 -107 -33l-22 57q47 24 85 33q-26 24 -26 62q0 37 26.5 63t63.5 26q38 0 63.5 -25.5t25.5 -63.5q0 -42 -32 -68q30 -10 54 -34
q45 -43 45 -130v-356h-67v73q-41 -83 -127 -83zM187 47q47 -1 79 35t32 87v84q-47 20 -96 20t-76.5 -30.5t-27.5 -81.5v-5q0 -49 24.5 -79t64.5 -30zM208 532q23 0 38 16t15 40q0 23 -15.5 39.5t-37.5 16.5q-23 0 -38.5 -16.5t-15.5 -39.5q0 -24 15.5 -40t38.5 -16z" />
    <glyph glyph-name="atilde.alt" horiz-adv-x="466" 
d="M203 -9q-69 0 -116.5 68t-47.5 194v19q0 125 47.5 193.5t116.5 68.5q87 0 136 -103v94h68v-525h-68v96q-49 -105 -136 -105zM218 52q52 0 88 55.5t36 146.5v18q0 91 -36 146t-88 55q-48 0 -79.5 -53.5t-31.5 -149.5v-14q0 -96 31.5 -150t79.5 -54zM296 582q-25 0 -59 24
q-31 21 -44 21q-12 0 -19.5 -10.5t-15.5 -35.5l-43 11q12 48 28.5 69.5t42.5 21.5q25 0 59 -24q29 -20 44 -20q12 0 19.5 10t15.5 35l43 -11q-12 -48 -28.5 -69.5t-42.5 -21.5z" />
    <glyph glyph-name="three.alt" horiz-adv-x="418" 
d="M178 -10q-94 0 -160 64l38 54q55 -53 120 -53q57 0 95 38.5t38 100.5v2q0 64 -42.5 98.5t-126.5 34.5h-18v61h18q74 0 117.5 38t43.5 100v1q0 53 -32 84.5t-81 31.5q-65 0 -119 -56l-38 49q69 72 162 72q78 0 128 -48t50 -123v-2q0 -64 -33.5 -107.5t-87.5 -64.5
q130 -41 130 -172v-2q0 -87 -57 -144t-145 -57z" />
    <glyph glyph-name="registered.alt" horiz-adv-x="632" 
d="M316 -11q-123 0 -202.5 100.5t-79.5 248.5v24q0 148 80 248.5t202 100.5q123 0 202 -100t79 -249v-23q0 -148 -79.5 -249t-201.5 -101zM316 18q111 0 181 92.5t70 228.5v23q0 136 -70 228t-181 92t-181 -92t-70 -228v-24q0 -136 70 -228t181 -92zM215 168v380h99
q59 0 92 -33q31 -29 31 -82v-3q0 -79 -70 -106l82 -156h-55l-74 144q-5 -1 -11 -1h-47v-143h-47zM262 354h50q35 0 55.5 19t20.5 56v1q0 36 -20.5 54.5t-55.5 18.5h-50v-149z" />
    <glyph glyph-name="R_p" horiz-adv-x="857" 
d="M56 0v700h137q96 0 152.5 -56t56.5 -156v-3q0 -75 -33 -125.5t-90 -73.5l139 -286h-76l-129 269h-90v-269h-67zM485 -141v668h64v-92q49 101 124 101q64 0 108.5 -69.5t44.5 -193.5v-21q0 -123 -44.5 -192t-108.5 -69q-75 0 -124 97v-229h-64zM657 50q45 0 73.5 54
t28.5 149v19q0 94 -29 149.5t-73 55.5t-76.5 -56t-32.5 -147v-23q0 -91 32.5 -146t76.5 -55zM123 328h72q64 0 102.5 41.5t38.5 114.5v2q0 75 -39.5 113.5t-107.5 38.5h-66v-310z" />
    <glyph glyph-name="onehalf.alt" horiz-adv-x="675" 
d="M260 339h-216v42h88v270l-83 -36l-4 47l95 42h40v-323h80v-42zM421 0v37l118 140q26 32 37 51.5t11 39.5q0 25 -16.5 39.5t-39.5 14.5q-7 0 -14 -1.5t-12 -3t-11.5 -5t-10 -5.5t-9.5 -7.5t-8 -7.5t-8.5 -8t-7.5 -7l-28 32q51 59 112 59q45 0 74 -26.5t29 -69.5
q0 -31 -12.5 -54.5t-43.5 -60.5l-96 -111h155v-46h-219zM152 0l183 359l168 342h46l-182 -360l-169 -341h-46z" />
    <glyph glyph-name="onethird.alt" horiz-adv-x="675" 
d="M261 339h-216v42h88v270l-83 -36l-4 47l95 42h40v-323h80v-42zM523 -6q-60 0 -108 44l26 36q38 -36 83 -36q28 0 47.5 17.5t19.5 48.5q0 64 -97 66h-12l-4 31l98 116h-146v45h206v-37l-100 -118q104 -16 104 -103q0 -49 -33.5 -79.5t-83.5 -30.5zM145 0l183 359l168 342
h46l-182 -360l-169 -341h-46z" />
    <glyph glyph-name="onequarter.alt" horiz-adv-x="675" 
d="M264 339h-216v42h88v270l-83 -36l-4 47l95 42h40v-323h80v-42zM160 0l183 359l168 342h46l-182 -360l-169 -341h-46zM603 76v-77h-45v77h-151l-4 39l143 249h57v-248h40v-40h-40zM559 116v186h-3l-106 -186h109z" />
    <glyph glyph-name="onefifth.alt" horiz-adv-x="675" 
d="M261 339h-216v42h88v270l-83 -36l-4 47l95 42h40v-323h80v-42zM524 -6q-60 0 -104 41l25 38q38 -35 79 -35q33 0 51 21t18 54q0 34 -19 51t-50 17q-28 0 -58 -16l-31 16l13 180h177v-46h-136l-8 -102q26 11 52 11q47 0 78 -29t31 -81q0 -53 -32.5 -86.5t-85.5 -33.5z
M150 0l183 359l168 342h46l-182 -360l-169 -341h-46z" />
    <glyph glyph-name="onesixth.alt" horiz-adv-x="675" 
d="M535 -6q-45 0 -72 27q-41 39 -41 138v10q0 98 35.5 148.5t94.5 50.5q43 0 80 -28l-22 -39q-28 22 -59 22q-36 0 -58 -32.5t-24 -95.5q25 37 75 37q43 0 71.5 -29.5t28.5 -85.5q0 -55 -31 -89t-78 -34zM154 0l183 359l168 342h46l-182 -360l-169 -341h-46zM261 339h-216
v42h88v270l-83 -36l-4 47l95 42h40v-323h80v-42zM535 37q29 0 46 21.5t17 57.5t-17 55t-46 19q-26 0 -44.5 -19.5t-18.5 -54.5q0 -36 17 -57.5t46 -21.5z" />
    <glyph glyph-name="oneeighth.alt" horiz-adv-x="675" 
d="M260 339h-216v42h88v270l-83 -36l-4 47l95 42h40v-323h80v-42zM534 -6q-50 0 -81.5 28.5t-31.5 74.5q0 62 58 91q-49 26 -49 83q0 43 30 70t75 27q44 0 74 -27t30 -70q0 -57 -50 -83q59 -27 59 -90q0 -47 -31.5 -75.5t-82.5 -28.5zM534 327q-26 0 -42 -16.5t-16 -41.5
q0 -27 16.5 -44.5t41.5 -17.5q26 0 42.5 17.5t16.5 44.5q0 26 -16.5 42t-42.5 16zM534 166q-29 0 -47.5 -19t-18.5 -48t18 -47t48 -18t48.5 18t18.5 47t-19 48t-48 19zM153 0l183 359l168 342h46l-182 -360l-169 -341h-46z" />
    <glyph glyph-name="one.sup_alt" 
d="M268 450h-216v42h88v271l-83 -36l-4 46l95 42h40v-323h80v-42z" />
    <glyph glyph-name="one.inf_alt" 
d="M268 -132h-216v42h88v271l-83 -36l-4 46l95 42h40v-323h80v-42z" />
    <glyph glyph-name="zero.tab" horiz-adv-x="450" 
d="M225 -9q-88 0 -136.5 87.5t-48.5 262.5v16q0 176 48 264t137 88t137 -87t48 -263v-16q0 -176 -48.5 -264t-136.5 -88zM225 646q-116 0 -116 -287v-16q0 -289 116 -289t116 287v16q0 289 -116 289z" />
    <glyph glyph-name="one.tab" horiz-adv-x="450" 
d="M418 0h-358v61h154v563l-143 -70l-7 68l165 81h54v-642h135v-61z" />
    <glyph glyph-name="two.tab" horiz-adv-x="450" 
d="M401 0h-361v54l196 282q49 70 69 112.5t20 82.5q-1 52 -30.5 81.5t-73.5 29.5q-68 0 -132 -82l-45 44q76 106 183 106q74 0 122 -48.5t48 -124.5v-3q0 -52 -21.5 -95.5t-78.5 -128.5l-169 -243h273v-67z" />
    <glyph glyph-name="three.tab" horiz-adv-x="450" 
d="M202 -10q-99 0 -170 73l39 54q64 -62 132 -62q56 0 91.5 38.5t35.5 104.5v5q0 66 -45.5 101t-129.5 35h-12l-8 45l175 249h-257v67h341v-57l-179 -250q80 -9 133 -56t53 -133v-4q0 -94 -57 -152t-142 -58z" />
    <glyph glyph-name="three.tab_alt" horiz-adv-x="450" 
d="M205 -10q-100 0 -173 74l38 53q61 -62 133 -62q58 0 92.5 37t34.5 101t-45 100t-124 36h-23v61h25q71 0 116.5 39t45.5 103q0 52 -32 83t-82 30q-71 0 -129 -65l-39 47q77 83 175 83q79 0 127.5 -48t48.5 -125q0 -123 -123 -174q59 -18 94.5 -62t35.5 -111
q0 -87 -54.5 -143.5t-141.5 -56.5z" />
    <glyph glyph-name="four.tab" horiz-adv-x="450" 
d="M291 0v156h-255l-7 58l246 490h80v-488h69v-60h-69v-156h-64zM291 216v382h-3l-196 -382h199z" />
    <glyph glyph-name="five.tab" horiz-adv-x="450" 
d="M203 -10q-93 0 -163 68l36 54q61 -58 126 -58q61 0 96 44.5t35 116.5v2q0 71 -35 108t-91 37q-53 0 -99 -33l-43 29l18 342h292v-66h-234l-13 -233q41 24 93 24q78 0 130 -52.5t52 -151.5v-3q0 -102 -56 -165t-144 -63z" />
    <glyph glyph-name="six.tab" horiz-adv-x="450" 
d="M234 -10q-67 0 -115 46q-73 73 -73 276v17q0 189 57.5 285t159.5 96q68 0 127 -46l-32 -57q-47 38 -97 38q-68 0 -106.5 -74t-42.5 -208q46 81 134 81q73 0 121 -55t48 -158v-7q0 -103 -51 -168.5t-130 -65.5zM235 52q52 0 82 48t30 122v4q0 75 -30.5 116t-81.5 41
t-83 -43t-32 -116v-3q0 -76 29.5 -122.5t85.5 -46.5z" />
    <glyph glyph-name="seven.tab" horiz-adv-x="450" 
d="M328 633h-278v67h352v-54l-230 -646h-73z" />
    <glyph glyph-name="eight.tab" horiz-adv-x="450" 
d="M225 -9q-82 0 -133 53.5t-51 138.5v6q0 61 28.5 106.5t77.5 66.5q-91 47 -91 161v5q0 81 48.5 131t120.5 50t120.5 -50t48.5 -131v-5q0 -114 -91 -161q49 -21 77.5 -66.5t28.5 -106.5v-6q0 -85 -51 -138.5t-133 -53.5zM225 50q54 0 85 38t31 99v3q0 63 -32.5 102.5
t-83.5 39.5q-50 0 -83 -40t-33 -102v-3q0 -61 31 -99t85 -38zM225 389q45 0 74 37.5t29 93.5v4q0 57 -28.5 92t-74.5 35t-74.5 -35t-28.5 -92v-4q0 -56 29 -93.5t74 -37.5z" />
    <glyph glyph-name="nine.tab" horiz-adv-x="450" 
d="M190 -10q-67 0 -137 50l32 58q55 -43 107 -43q68 0 106.5 72.5t41.5 202.5q-45 -80 -133 -80q-73 0 -121 56t-48 160v7q0 105 51 171t130 66q69 0 115 -46q72 -72 72 -276v-17q0 -189 -57 -285t-159 -96zM218 310q50 0 82.5 44.5t32.5 118.5v3q0 77 -29.5 124.5
t-85.5 47.5q-53 0 -82.5 -48.5t-29.5 -124.5v-4q0 -77 30.5 -119t81.5 -42z" />
    <glyph glyph-name="period.tab" horiz-adv-x="225" 
d="M66 0v109h93v-109h-93z" />
    <glyph glyph-name="comma.tab" horiz-adv-x="225" 
d="M57 -119l-12 33q66 22 61 86h-40v109h93v-94q0 -56 -24.5 -87t-77.5 -47z" />
    <glyph glyph-name="colon.tab" horiz-adv-x="225" 
d="M66 415v109h93v-109h-93zM66 0v109h93v-109h-93z" />
    <glyph glyph-name="semicolon.tab" horiz-adv-x="225" 
d="M66 415v109h93v-109h-93zM57 -119l-12 33q66 22 61 86h-40v109h93v-94q0 -56 -24.5 -87t-77.5 -47z" />
    <glyph glyph-name="twodotleader.tab" horiz-adv-x="450" 
d="M292 0v104h89v-104h-89zM69 0v104h89v-104h-89z" />
    <glyph glyph-name="periodcentered.tab" horiz-adv-x="225" 
d="M66 247v109h93v-109h-93z" />
    <glyph glyph-name="slash.tab" horiz-adv-x="450" 
d="M429 779l-360 -888h-61l360 888h61z" />
    <glyph glyph-name="bar.tab" horiz-adv-x="225" 
d="M84 -109v888h56v-888h-56z" />
    <glyph glyph-name="underscore.tab" horiz-adv-x="450" 
d="M0 -158v55h450v-55h-450z" />
    <glyph glyph-name="dollar.tab" horiz-adv-x="450" 
d="M288 780l-7 -81q64 -12 119 -57l-37 -55q-47 38 -89 49l-20 -252q84 -43 120 -89t36 -113v-2q0 -79 -52 -131t-135 -53l-10 -110h-51l9 114q-83 15 -145 71l38 54q53 -48 113 -61l22 267q-79 39 -115 83t-36 112v1q0 76 51 126t131 51l7 76h51zM342 179q0 43 -21.5 73
t-73.5 57l-20 -250q55 2 85 35.5t30 83.5v1zM116 530q0 -42 20.5 -70t69.5 -54l19 236q-50 -2 -79.5 -33t-29.5 -78v-1z" />
    <glyph glyph-name="sterling.tab" horiz-adv-x="450" 
d="M107 369v127q0 115 54 169q45 43 117 43q82 0 145 -69l-44 -49q-49 53 -102 53q-40 0 -64 -24q-36 -36 -36 -121v-129h180v-62h-180v-244h240v-63h-371v40l61 20v247h-62v62h62z" />
    <glyph glyph-name="Euro.tab" horiz-adv-x="450" 
d="M24 409v52h67q19 117 74 182t134 65q66 0 123 -54l-37 -51q-40 40 -85 40q-52 0 -88 -46.5t-51 -135.5h169v-52h-175q-1 -17 -1 -51v-16q0 -31 1 -46h175v-52h-170q14 -90 50.5 -138.5t87.5 -48.5q46 0 87 43l38 -49q-59 -59 -128 -59q-80 0 -134 65.5t-71 186.5h-66v52
h61q-1 15 -1 46v16q0 34 1 51h-61z" />
    <glyph glyph-name="yen.tab" horiz-adv-x="450" 
d="M67 175h125v93h-125v53h111l-162 379h75l135 -337l135 337h73l-164 -379h113v-53h-125v-93h125v-53h-125v-122h-66v122h-125v53z" />
    <glyph glyph-name="cent.tab" horiz-adv-x="450" 
d="M300 704l-7 -84q65 -12 113 -63l-36 -49q-40 40 -83 50l-30 -414q62 0 113 56l36 -47q-65 -71 -152 -71l-8 -87h-52l8 93q-70 18 -110 85t-40 172v9q0 119 51.5 190t136.5 78l7 82h53zM119 347q0 -155 88 -194l29 406q-54 -9 -85.5 -62t-31.5 -143v-7z" />
    <glyph glyph-name="numbersign.tab" horiz-adv-x="450" 
d="M23 240h78l19 222h-73v62h79l15 176h52l-16 -176h124l16 176h52l-15 -176h73v-62h-79l-19 -222h73v-61h-79l-15 -179h-52l15 179h-123l-15 -179h-52l15 179h-73v61zM172 463l-20 -224h125l19 224h-124z" />
    <glyph glyph-name="paragraph.tab" horiz-adv-x="450" 
d="M302 0v254h-26q-108 2 -171.5 61t-63.5 162v1q0 104 65.5 163t175.5 59h90v-700h-70z" />
    <glyph glyph-name="section.tab" horiz-adv-x="450" 
d="M217 -8q-74 0 -140 50l32 49q53 -40 110 -40q35 0 55.5 18t20.5 47v1q0 29 -25 50t-88 49q-83 37 -115 67t-32 75v2q0 42 30 75t87 45q-63 46 -63 103v2q0 54 40.5 88.5t104.5 34.5q73 0 139 -50l-32 -49q-51 40 -109 40q-36 0 -56 -18t-20 -47v-1q0 -29 24.5 -50
t87.5 -49q83 -37 115 -67t32 -75v-2q0 -42 -30 -75t-87 -45q63 -47 63 -103v-2q0 -54 -40.5 -88.5t-103.5 -34.5zM189 443q-37 0 -64.5 -22t-27.5 -54v-4q0 -27 22.5 -47.5t77.5 -42.5q41 -16 64 -16q37 0 64.5 22t27.5 54v4q0 27 -22.5 47.5t-77.5 42.5q-41 16 -64 16z" />
    <glyph glyph-name="degree.tab" horiz-adv-x="450" 
d="M225 316q-66 0 -111 54t-45 138v7q0 84 45 138.5t111 54.5t111 -54.5t45 -138.5v-7q0 -84 -45 -138t-111 -54zM225 366q46 0 74.5 39t28.5 103v7q0 63 -28.5 102.5t-74.5 39.5t-74.5 -39.5t-28.5 -102.5v-7q0 -64 28.5 -103t74.5 -39z" />
    <glyph glyph-name="percent.tab" horiz-adv-x="450" 
d="M123 706q47 0 74 -44.5t27 -118.5v-10q0 -74 -27 -119t-74 -45q-48 0 -75 44.5t-27 118.5v10q0 75 27 119.5t75 44.5zM327 331q48 0 75 -44.5t27 -118.5v-10q0 -74 -27.5 -119t-74.5 -45q-46 0 -73.5 44.5t-27.5 118.5v10q0 73 27.5 118.5t73.5 45.5zM359 700h45
l-164 -358l-149 -342h-45l164 357zM123 660q-53 0 -53 -116v-13q0 -116 53 -116t53 116v13q0 116 -53 116zM327 285q-53 0 -53 -116v-13q0 -116 53 -116t53 116v13q0 116 -53 116z" />
    <glyph glyph-name="quotedbl.tab" horiz-adv-x="450" 
d="M264 434l30 266h79l-1 -8l-76 -258h-32zM95 434l30 266h78v-8l-76 -258h-32z" />
    <glyph glyph-name="quotesingle.tab" horiz-adv-x="225" 
d="M69 434l31 266h77v-8l-75 -258h-33z" />
    <glyph glyph-name="plus.tab" horiz-adv-x="450" 
d="M405 321h-148v-154h-64v154h-148v62h148v154h64v-154h148v-62z" />
    <glyph glyph-name="minus.tab" horiz-adv-x="450" 
d="M404 318h-358v68h358v-68z" />
    <glyph glyph-name="divide.tab" horiz-adv-x="450" 
d="M185 468v90h80v-90h-80zM404 320h-358v64h358v-64zM185 147v89h80v-89h-80z" />
    <glyph glyph-name="equal.tab" horiz-adv-x="450" 
d="M396 410h-342v65h342v-65zM396 229h-342v65h342v-65z" />
    <glyph glyph-name="multiply.tab" horiz-adv-x="450" 
d="M345 178l-120 129l-121 -129l-47 42l127 132l-127 131l47 43l121 -129l121 129l47 -42l-126 -132l126 -131z" />
    <glyph glyph-name="less.tab" horiz-adv-x="450" 
d="M383 134l-331 188v60l331 188v-74l-261 -144l261 -143v-75z" />
    <glyph glyph-name="greater.tab" horiz-adv-x="450" 
d="M398 322l-331 -188v74l261 144l-261 143v75l331 -188v-60z" />
    <glyph glyph-name="plusminus.tab" horiz-adv-x="450" 
d="M405 339h-148v-150h-64v150h-148v63h148v150h64v-150h148v-63zM404 44h-358v62h358v-62z" />
    <glyph glyph-name="space.tab" horiz-adv-x="225" 
 />
    <glyph glyph-name="NUL" horiz-adv-x="0" 
 />
    <glyph glyph-name="hfjslug" horiz-adv-x="694" 
d="M644 -200h-208l-8 14h-163l-8 -14h-207v303q14 0 23 9.5t9 22.5t-9.5 22.5t-22.5 9.5v554h100l30 79h334l29 -79h101v-921zM400 563v-172h15v78h38v14h-38v66h43v14h-58zM184 563v-172h15v79h47v-79h15v172h-15v-79h-47v79h-15zM460 394q10 -4 21 -4q31 0 31 36v137h-16
v-137q0 -22 -16 -22q-8 0 -20 5v-15zM371 465l-13 3q-4 -18 -8 -30h-1l-16 31q23 21 23 42q0 31 -27 31q-12 0 -20 -9t-8 -22t14 -39q-23 -18 -23 -47q0 -16 8 -26.5t21 -10.5q19 0 29 24h1l12 -24l12 6l-17 32q6 14 13 39zM523 323v-46h8v12l8 8l15 -20h10l-20 26l18 20
h-10l-20 -24h-1v24h-8zM488 292l10 -15h9l-12 17q10 4 10 14q0 15 -17 15h-20v-46h8v15h12zM426 276q10 0 17 7t7 17q0 9 -7 16.5t-17 7.5t-17 -7.5t-7 -16.5q0 -10 7 -17t17 -7zM370 301l-13 22h-9l18 -29v-17h8v17l18 29h-9zM193 323v-46h34v7h-26v13h23v7h-23v12h26v7
h-34zM132 323v-46h8v32l25 -32h7v46h-8v-32l-25 32h-7zM241 323l14 -47h8l11 34h1l11 -34h8l14 47h-8l-10 -35h-1l-11 35h-7l-11 -35h-1l-10 35h-8zM327 479q-12 22 -12 32q0 19 14 19q13 0 13 -19q0 -15 -15 -32zM342 423q-8 -21 -20 -21q-16 0 -16 25q0 19 16 35zM487 299
h-11v17h11q10 0 10 -8q0 -9 -10 -9zM426 283q-16 0 -16 17q0 6 4.5 11.5t11.5 5.5t11.5 -5.5t4.5 -11.5q0 -17 -16 -17z" />
    <glyph glyph-name="i.dot" horiz-adv-x="197" 
d="M62 626v84h73v-84h-73zM65 0v525h67v-525h-67z" />
    <glyph glyph-name="zero.num" 
d="M150 332q-55 0 -84.5 47t-29.5 136v7q0 90 29.5 137t84.5 47q54 0 84 -47t30 -136v-7q0 -88 -30.5 -136t-83.5 -48zM150 661q-65 0 -65 -138v-6q0 -69 17 -104.5t48 -35.5q65 0 65 139v6q0 139 -65 139z" />
    <glyph glyph-name="one.num" horiz-adv-x="244" 
d="M161 339h-49v310l-71 -33l-5 46l85 41h40v-364z" />
    <glyph glyph-name="one.num_alt" 
d="M267 339h-216v42h88v270l-83 -36l-4 47l95 42h40v-323h80v-42z" />
    <glyph glyph-name="two.num" 
d="M39 339v37l118 140q26 31 37 50.5t11 40.5q0 25 -16 39t-40 14q-18 0 -34.5 -8.5t-24 -15t-22.5 -21.5l-28 33q52 58 112 58q45 0 74 -26.5t29 -68.5q0 -31 -12.5 -54.5t-43.5 -61.5l-96 -111h155v-45h-219z" />
    <glyph glyph-name="three.num" 
d="M139 332q-59 0 -108 45l26 35q40 -36 83 -36q28 0 47.5 18t19.5 48q0 64 -97 66h-12l-4 31l98 116h-146v46h206v-37l-100 -118q104 -18 104 -104q0 -49 -33.5 -79.5t-83.5 -30.5z" />
    <glyph glyph-name="four.num" 
d="M232 414v-76h-45v76h-151l-4 40l143 249h57v-248h40v-41h-40zM188 455v186h-3l-106 -186h109z" />
    <glyph glyph-name="five.num" 
d="M140 332q-59 0 -104 42l25 38q38 -36 79 -36q33 0 51 21.5t18 54.5t-19 50t-50 17q-30 0 -58 -15l-31 16l13 180h177v-46h-136l-8 -102q28 10 52 10q48 0 78.5 -28.5t30.5 -80.5q0 -54 -32.5 -87.5t-85.5 -33.5z" />
    <glyph glyph-name="six.num" 
d="M151 332q-43 0 -72 27q-41 41 -41 139v10q0 98 35.5 148t94.5 50q45 0 80 -27l-22 -39q-31 22 -59 22q-36 0 -58 -32.5t-24 -96.5q24 38 75 38q43 0 71.5 -29.5t28.5 -85.5q0 -55 -31 -89.5t-78 -34.5zM151 375q29 0 46 21.5t17 58.5q0 36 -17 55t-46 19
q-26 0 -44.5 -19.5t-18.5 -54.5q0 -36 17 -58t46 -22z" />
    <glyph glyph-name="seven.num" 
d="M123 338h-52l134 315h-161v47h213v-37z" />
    <glyph glyph-name="eight.num" 
d="M150 332q-51 0 -82.5 28.5t-31.5 76.5q0 30 16 54t43 35q-50 28 -50 83q0 44 30 70.5t75 26.5t75 -26.5t30 -70.5q0 -55 -50 -83q27 -11 43 -35t16 -54q0 -48 -31.5 -76.5t-82.5 -28.5zM150 666q-26 0 -42.5 -16t-16.5 -42q0 -27 16.5 -44.5t42.5 -17.5t42.5 17.5
t16.5 44.5q0 26 -16.5 42t-42.5 16zM150 505q-29 0 -48 -19t-19 -49q0 -29 18 -46.5t49 -17.5t49 17.5t18 46.5q0 30 -19 49t-48 19z" />
    <glyph glyph-name="nine.num" 
d="M151 706q44 0 71 -27q40 -40 40 -138v-10q0 -98 -35 -148.5t-94 -50.5q-45 0 -85 30l21 39q33 -24 64 -24q36 0 58.5 31.5t24.5 92.5q-25 -37 -75 -37q-43 0 -72 30t-29 87q0 56 31.5 90.5t79.5 34.5zM149 506q27 0 45.5 20t18.5 57t-17 58.5t-46 21.5q-30 0 -46.5 -21.5
t-16.5 -59.5q0 -37 17 -56.5t45 -19.5z" />
    <glyph glyph-name="zero.den" 
d="M150 -6q-55 0 -84.5 47t-29.5 136v7q0 89 30 136.5t84 47.5t84 -47t30 -136v-7q0 -89 -30.5 -136.5t-83.5 -47.5zM150 323q-65 0 -65 -139v-6q0 -139 65 -139t65 138v6q0 140 -65 140z" />
    <glyph glyph-name="one.den" horiz-adv-x="244" 
d="M161 0h-49v311l-71 -34l-5 47l85 40h40v-364z" />
    <glyph glyph-name="one.den_alt" 
d="M267 0h-216v42h88v271l-83 -36l-4 46l95 42h40v-323h80v-42z" />
    <glyph glyph-name="two.den" 
d="M39 0v37l118 140q26 32 37 51.5t11 39.5q0 25 -16.5 39.5t-39.5 14.5q-7 0 -14 -1.5t-12 -3t-11.5 -5t-10 -5.5t-9.5 -7.5t-8 -7.5t-8.5 -8t-7.5 -7l-28 32q51 59 112 59q45 0 74 -26.5t29 -69.5q0 -31 -12.5 -54.5t-43.5 -60.5l-96 -111h155v-46h-219z" />
    <glyph glyph-name="three.den" 
d="M139 -6q-60 0 -108 44l26 36q38 -36 83 -36q28 0 47.5 17.5t19.5 48.5q0 64 -97 66h-12l-4 31l98 116h-146v45h206v-37l-100 -118q104 -16 104 -103q0 -49 -33.5 -79.5t-83.5 -30.5z" />
    <glyph glyph-name="four.den" 
d="M232 76v-77h-45v77h-151l-4 39l143 249h57v-248h40v-40h-40zM188 116v186h-3l-106 -186h109z" />
    <glyph glyph-name="five.den" 
d="M140 -6q-60 0 -104 41l25 38q38 -35 79 -35q33 0 51 21t18 54q0 34 -19 51t-50 17q-28 0 -58 -16l-31 16l13 180h177v-46h-136l-8 -102q26 11 52 11q47 0 78 -29t31 -81q0 -53 -32.5 -86.5t-85.5 -33.5z" />
    <glyph glyph-name="six.den" 
d="M151 -6q-45 0 -72 27q-41 39 -41 138v10q0 98 35.5 148.5t94.5 50.5q43 0 80 -28l-22 -39q-28 22 -59 22q-36 0 -58 -32.5t-24 -95.5q25 37 75 37q43 0 71.5 -29.5t28.5 -85.5q0 -55 -31 -89t-78 -34zM151 37q29 0 46 21.5t17 57.5t-17 55t-46 19q-26 0 -44.5 -19.5
t-18.5 -54.5q0 -36 17 -57.5t46 -21.5z" />
    <glyph glyph-name="seven.den" 
d="M123 -1h-52l134 316h-161v46h213v-37z" />
    <glyph glyph-name="eight.den" 
d="M150 -6q-50 0 -81.5 28.5t-31.5 74.5q0 62 58 91q-49 26 -49 83q0 43 30 70t75 27q44 0 74 -27t30 -70q0 -57 -50 -83q59 -27 59 -90q0 -47 -31.5 -75.5t-82.5 -28.5zM150 327q-26 0 -42 -16.5t-16 -41.5q0 -27 16.5 -44.5t41.5 -17.5q26 0 42.5 17.5t16.5 44.5
q0 26 -16.5 42t-42.5 16zM150 166q-29 0 -47.5 -19t-18.5 -48t18 -47t48 -18t48.5 18t18.5 47t-19 48t-48 19z" />
    <glyph glyph-name="nine.den" 
d="M151 368q42 0 71 -27q40 -40 40 -139v-10q0 -98 -35 -148t-94 -50q-44 0 -85 29l21 39q36 -24 64 -24q36 0 58.5 32t24.5 93q-24 -38 -75 -38q-43 0 -72 30t-29 87q0 56 31.5 91t79.5 35zM149 167q27 0 45.5 20t18.5 57q0 38 -17 59.5t-46 21.5q-30 0 -46.5 -22
t-16.5 -60q0 -36 17 -56t45 -20z" />
    <glyph glyph-name="caron.alt" horiz-adv-x="500" 
d="M198 567l10 155h56v-3l-35 -152h-31z" />
    <glyph glyph-name="acute.cap" horiz-adv-x="500" 
d="M179 747l80 117l68 -32l-95 -85h-53z" />
    <glyph glyph-name="hungarumlaut.cap" horiz-adv-x="500" 
d="M116 747l80 117l64 -32l-93 -85h-51zM233 747l80 117l65 -32l-93 -85h-52z" />
    <glyph glyph-name="grave.cap" horiz-adv-x="500" 
d="M318 747h-52l-95 85l67 32z" />
    <glyph glyph-name="circumflex.cap" horiz-adv-x="500" 
d="M133 749l86 109h62l86 -109h-60l-58 57l-58 -57h-58z" />
    <glyph glyph-name="caron.cap" horiz-adv-x="500" 
d="M367 858l-86 -109h-62l-86 109h60l58 -57l58 57h58z" />
    <glyph glyph-name="breve.cap" horiz-adv-x="500" 
d="M250 747q-49 0 -81 25t-36 71h51q14 -43 66 -43t66 43h51q-4 -46 -36 -71t-81 -25z" />
    <glyph glyph-name="tilde.cap" horiz-adv-x="500" 
d="M308 748q-24 0 -63 21q-32 17 -45 17t-20.5 -9t-16.5 -31l-44 11q23 86 73 86q26 0 63 -21q34 -17 44 -17q13 0 21 9t17 31l43 -11q-23 -86 -72 -86z" />
    <glyph glyph-name="macron.cap" horiz-adv-x="500" 
d="M125 761v55h250v-55h-250z" />
    <glyph glyph-name="dieresis.cap" horiz-adv-x="500" 
d="M283 752v81h75v-81h-75zM141 752v81h76v-81h-76z" />
    <glyph glyph-name="dotaccent.cap" horiz-adv-x="500" 
d="M211 752v81h78v-81h-78z" />
    <glyph glyph-name="ring.cap" horiz-adv-x="500" 
d="M249 746q-38 0 -64.5 24.5t-26.5 60.5t27 60t66 24q38 0 64.5 -24t26.5 -60t-27 -60.5t-66 -24.5zM250 779q23 0 38 15t15 37q0 21 -15 35.5t-38 14.5t-38 -14.5t-15 -35.5q0 -22 15 -37t38 -15z" />
    </font>
</defs>
</svg>
